<svg width="336" height="336" viewBox="0 0 336 336" fill="none" xmlns="http://www.w3.org/2000/svg">
<path d="M90.2227 251.046C83.4682 251.05 76.7881 249.635 70.6158 246.892C64.4435 244.148 58.917 240.138 54.3946 235.12C49.8723 230.103 46.4552 224.191 44.3651 217.768C42.275 211.345 41.5585 204.555 42.2621 197.837C25.0522 191.607 13.5139 174.209 13.5139 154.419C13.5139 141.611 18.4733 129.333 27.1354 120.671C22.3155 113.173 19.7735 104.438 19.8173 95.5248C19.8173 71.5546 39.1507 57.3149 58.3699 55.5408C59.0207 50.0431 60.7701 44.7323 63.5142 39.9242C66.2582 35.116 69.9409 30.9086 74.3434 27.552C83.6726 20.2988 95.29 16.6244 107.093 17.1939C118.897 17.7634 130.106 22.539 138.694 30.6567C146.772 17.7543 160.091 10.08 174.424 10.08C186.332 10.08 197.407 15.2477 205.645 24.6423C212.712 20.6764 220.679 18.5937 228.782 18.5943C249.957 18.5943 269.176 33.0826 276.683 54.6807C287.499 54.9317 297.787 59.4059 305.346 67.146C312.905 74.886 317.135 85.2771 317.13 96.096C317.13 108.387 310.222 122.445 301.002 129.071C309.9 138.331 314.187 149.997 313.098 161.999C310.598 189.195 290.499 203.401 276.683 203.401C275.218 213.931 269.109 223.776 259.446 231.148C250.152 238.244 238.392 242.316 227.19 242.316C213.972 242.231 201.274 237.16 191.634 228.117C183.16 241.692 169.183 249.776 154.13 249.776C143.028 249.776 132.364 245.34 124.051 237.29C115.032 246.16 102.872 251.104 90.2227 251.046ZM104.832 18.0499C84.672 18.0499 61.824 31.3488 59.2234 55.9978L59.183 56.3674L58.8202 56.401C39.8832 57.9869 20.7178 71.9376 20.7178 95.5248C20.679 104.391 23.2497 113.074 28.1098 120.49L28.3114 120.799L28.0493 121.054C19.3939 129.555 14.4346 141.718 14.4346 154.419C14.4346 173.961 25.8586 191.117 42.9206 197.111L43.2499 197.232V197.581C43.0566 199.322 42.9579 201.072 42.9542 202.823C42.9718 212.164 45.753 221.291 50.9477 229.054C56.1423 236.818 63.518 242.87 72.1459 246.45C80.7737 250.029 90.2679 250.976 99.4327 249.17C108.597 247.364 117.023 242.887 123.648 236.302L123.964 235.993L124.28 236.302C132.465 244.366 143.035 248.842 154.043 248.842C168.948 248.842 182.791 240.731 191.07 227.143L191.359 226.672L191.755 227.049C201.6 236.295 214.166 241.382 227.136 241.382C248.257 241.382 272.832 225.926 275.809 202.857L275.856 202.453H276.259C289.699 202.769 309.718 188.805 312.191 161.871C313.286 149.984 308.952 138.405 299.988 129.279L299.618 128.896L300.055 128.594C309.12 122.371 316.236 108.078 316.236 96.096C316.191 85.4748 311.994 75.2925 304.542 67.7246C297.089 60.1566 286.973 55.8033 276.353 55.5946H276.044L275.943 55.2989C268.625 33.8621 249.675 19.488 228.782 19.488C220.711 19.4818 212.777 21.5827 205.766 25.5831L205.444 25.7578L205.209 25.4823C197.145 16.1146 186.184 10.9536 174.424 10.9536C160.232 10.9536 147.054 18.6749 139.171 31.6109L138.882 32.0813L138.486 31.705C129.421 23.0253 117.381 18.1401 104.832 18.0499Z" fill="#E0E0E0"/>
<path d="M141.98 324.865L32.7532 261.757L205.632 161.918L314.859 225.026L141.98 324.865Z" fill="#E0E0E0"/>
<path d="M216.922 314.946C215.728 314.964 214.551 314.675 213.501 314.106L210.927 312.621C210.388 312.408 209.925 312.038 209.599 311.559C209.273 311.079 209.098 310.513 209.098 309.933C209.098 309.353 209.273 308.787 209.599 308.307C209.925 307.828 210.388 307.458 210.927 307.245L244.83 287.616C241.806 284.256 240.468 280.486 240.939 276.622C241.544 271.696 245.146 267.093 251.093 263.659C257.524 259.943 266.058 257.9 275.124 257.9C284.189 257.9 292.723 259.916 299.161 263.659C305.767 267.469 309.402 272.604 309.402 278.107C309.402 283.611 305.767 288.738 299.161 292.548C292.723 296.265 284.189 298.308 275.13 298.308C266.394 298.308 258.142 296.406 251.798 292.932L220.752 313.858C219.607 314.581 218.277 314.959 216.922 314.946Z" fill="#E0E0E0"/>
<path d="M105.202 317.668L97.2988 308.69L51.2534 282.012L49.5801 281.044L46.8451 279.465L46.6569 279.357H46.7241L44.0966 277.852L33.3446 271.663C31.2681 270.245 28.1567 273.121 26.9471 276.024C26.7607 276.456 26.6189 276.907 26.5238 277.368C26.2886 278.571 26.5238 279.66 27.3839 280.271L36.1199 285.318L38.4988 286.662L40.4611 287.791L40.6492 287.892L42.9206 289.202C42.945 289.232 42.9746 289.257 43.0079 289.276L44.9164 290.358L91.9564 317.621L103.488 319.899L106.626 320.524C106.697 320.537 106.769 320.534 106.838 320.514C106.907 320.494 106.97 320.458 107.023 320.41C107.106 320.325 107.152 320.212 107.152 320.094C107.152 319.976 107.106 319.862 107.023 319.778L105.202 317.668Z" fill="#E0E0E0"/>
<path d="M304.268 269.425C304.268 265.037 301.372 260.642 295.566 257.295C283.96 250.575 265.151 250.575 253.546 257.295C247.746 260.655 244.843 265.037 244.843 269.425V277.489C244.843 281.884 247.746 286.272 253.546 289.619C265.151 296.339 283.96 296.339 295.566 289.619C301.372 286.259 304.268 281.884 304.268 277.489V269.425ZM254.984 259.782C260.165 256.791 267.113 255.145 274.559 255.145C282.005 255.145 288.947 256.791 294.128 259.782C298.832 262.47 301.399 265.91 301.399 269.425C301.399 272.94 298.818 276.36 294.128 279.068C288.947 282.059 281.998 283.705 274.559 283.705C267.12 283.705 260.165 282.059 254.984 279.068C250.28 276.38 247.719 272.94 247.719 269.425C247.719 265.91 250.3 262.49 254.984 259.782Z" fill="#6F604E"/>
<path opacity="0.3" d="M253.546 281.568C265.151 288.288 283.96 288.288 295.566 281.568C307.171 274.848 307.171 264.009 295.566 257.309C283.96 250.609 265.151 250.589 253.546 257.309C241.94 264.029 241.92 274.848 253.546 281.568ZM247.713 269.438C247.713 265.924 250.293 262.503 254.984 259.795C260.165 256.805 267.113 255.158 274.552 255.158C281.991 255.158 288.947 256.805 294.128 259.795C298.832 262.483 301.392 265.924 301.392 269.438C301.392 272.953 298.812 276.373 294.128 279.082C288.947 282.072 281.991 283.718 274.552 283.718C267.113 283.718 260.165 282.072 254.984 279.082C250.293 276.36 247.713 272.939 247.713 269.425V269.438Z" fill="white"/>
<path d="M247.713 269.425C247.733 270.849 248.134 272.241 248.875 273.457C250.051 271.441 252.128 269.506 254.984 267.859C260.165 264.862 267.113 263.216 274.559 263.216C282.005 263.216 288.947 264.862 294.128 267.859C296.984 269.506 299.06 271.414 300.243 273.457C300.979 272.239 301.378 270.848 301.399 269.425C301.399 265.91 298.818 262.49 294.128 259.782C288.947 256.791 281.991 255.145 274.559 255.145C267.127 255.145 260.165 256.791 254.984 259.782C250.293 262.49 247.713 265.91 247.713 269.425Z" fill="#6F604E"/>
<path opacity="0.1" d="M247.713 269.425C247.733 270.849 248.134 272.241 248.875 273.457C250.051 271.441 252.128 269.506 254.984 267.859C260.165 264.862 267.113 263.216 274.559 263.216C282.005 263.216 288.947 264.862 294.128 267.859C296.984 269.506 299.06 271.414 300.243 273.457C300.979 272.239 301.378 270.848 301.399 269.425C301.399 265.91 298.818 262.49 294.128 259.782C288.947 256.791 281.991 255.145 274.559 255.145C267.127 255.145 260.165 256.791 254.984 259.782C250.293 262.49 247.713 265.91 247.713 269.425Z" fill="black"/>
<path opacity="0.6" d="M254.984 263.424C260.165 260.434 267.113 258.787 274.552 258.787C281.991 258.787 288.947 260.434 294.128 263.424C297.992 265.655 300.424 268.377 301.157 271.233C300.424 274.089 297.992 276.81 294.128 279.048C288.947 282.038 281.991 283.685 274.552 283.685C267.113 283.685 260.165 282.038 254.984 279.048C251.113 276.81 248.687 274.089 247.955 271.233C248.687 268.397 251.113 265.675 254.984 263.424Z" fill="white"/>
<path opacity="0.1" d="M267.557 286.104V294.168C262.64 293.562 257.885 292.022 253.546 289.632C247.746 286.272 244.843 281.891 244.843 277.502V269.438C244.845 268.544 244.965 267.654 245.199 266.791C243.788 272.012 246.543 277.543 253.539 281.575C257.882 283.96 262.639 285.497 267.557 286.104Z" fill="black"/>
<path d="M254.433 286.702C254.395 285.98 254.188 285.276 253.828 284.648C253.469 284.02 252.967 283.485 252.363 283.087C252.153 282.936 251.908 282.842 251.651 282.815C251.394 282.788 251.134 282.828 250.898 282.932L240.899 288.637C240.688 288.789 240.521 288.992 240.414 289.228C240.307 289.464 240.263 289.724 240.287 289.981C240.325 290.703 240.531 291.406 240.891 292.033C241.251 292.66 241.753 293.193 242.357 293.59C242.566 293.744 242.813 293.84 243.072 293.867C243.33 293.894 243.592 293.852 243.829 293.745L253.828 288.039C254.037 287.889 254.203 287.686 254.309 287.451C254.415 287.217 254.458 286.958 254.433 286.702Z" fill="#25201A"/>
<path d="M253.808 288.053C254.021 287.904 254.192 287.701 254.302 287.465C254.411 287.229 254.457 286.968 254.433 286.709C254.419 286.171 254.298 285.64 254.076 285.15L241.181 292.542C241.488 292.978 241.882 293.346 242.337 293.624C242.546 293.778 242.793 293.873 243.052 293.9C243.31 293.928 243.571 293.885 243.808 293.778L253.808 288.073V288.053Z" fill="black"/>
<path d="M244.023 293.577C243.976 292.637 243.708 291.721 243.241 290.904C242.774 290.086 242.121 289.391 241.335 288.873C241.066 288.678 240.752 288.557 240.422 288.521C240.092 288.484 239.759 288.534 239.454 288.664L213.468 302.286L218.413 311.022L243.277 295.31C243.543 295.112 243.752 294.848 243.883 294.543C244.013 294.239 244.062 293.906 244.023 293.577Z" fill="#6F604E"/>
<path opacity="0.1" d="M218.4 311.042L243.264 295.331C243.544 295.138 243.766 294.873 243.908 294.564C244.05 294.256 244.106 293.914 244.07 293.577C244.034 292.561 243.722 291.574 243.17 290.721L215.88 306.533L218.4 311.042Z" fill="black"/>
<path d="M215.88 310.78C214.849 310.1 213.993 309.188 213.38 308.116C212.767 307.045 212.415 305.844 212.352 304.611C212.352 302.34 213.958 301.432 215.914 302.595C216.944 303.274 217.801 304.187 218.414 305.258C219.027 306.33 219.379 307.531 219.442 308.764C219.435 311.008 217.836 311.922 215.88 310.78Z" fill="#6F604E"/>
<g opacity="0.2">
<path d="M215.88 310.78C214.849 310.1 213.993 309.188 213.38 308.116C212.767 307.045 212.415 305.844 212.352 304.611C212.352 302.34 213.958 301.432 215.914 302.595C216.944 303.274 217.801 304.187 218.414 305.258C219.027 306.33 219.379 307.531 219.442 308.764C219.435 311.008 217.836 311.922 215.88 310.78Z" fill="black"/>
</g>
<path d="M37.0271 281.508L38.1023 282.126L39.3993 282.912L93.5087 314.234C93.1055 313.327 93.4213 311.546 94.342 309.785C95.4172 307.769 97.0636 306.17 98.2597 306.109L44.4997 274.989L42.0066 273.504C43.5657 274.539 38.5996 282.502 37.0271 281.508Z" fill="#4A4034"/>
<path d="M44.3519 274.882L41.9461 273.538C41.2741 273.114 39.9301 274.344 38.8281 275.97C37.3093 278.127 36.0796 280.983 36.9868 281.541L38.7609 282.556L39.4329 282.912C38.5257 282.348 39.7554 279.492 41.2741 277.334C42.3628 275.782 43.6127 274.586 44.3049 274.875L44.3519 274.882Z" fill="#EBEBEB"/>
<path d="M43.774 274.546C42.1881 273.564 37.2355 281.561 38.8214 282.549L41.2271 283.933C39.6412 282.946 44.5871 274.949 46.1798 275.93L43.774 274.546Z" fill="#6F604E"/>
<path d="M48.4713 277.247L46.0991 275.903C44.5468 274.922 39.6883 282.623 41.0054 283.826L41.086 283.886L43.4851 285.23C41.9327 284.216 46.8921 276.252 48.4713 277.247Z" fill="#EBEBEB"/>
<path d="M42.0067 273.504C41.3347 273.067 40.031 274.304 38.8886 275.937C37.39 278.053 36.2006 280.849 37.0137 281.467L26.9471 275.715C26.1407 275.164 25.9593 274.183 26.1676 273.101C26.7254 270.178 30.1459 266.461 32.3164 267.94L42.0067 273.504Z" fill="#F28F8F"/>
<path d="M104.657 314.57C103.831 315.692 103.911 316.243 103.911 316.243L93.5088 314.227C92.4739 312.648 93.1526 310.088 94.584 308.26L95.041 308.522L104.657 314.57Z" fill="#F28F8F"/>
<path d="M106.74 316.801L103.911 316.243C103.911 316.243 103.784 315.699 104.657 314.57L107.13 316.129C107.204 316.205 107.246 316.308 107.246 316.415C107.246 316.521 107.204 316.624 107.13 316.7C107.079 316.749 107.016 316.783 106.948 316.801C106.88 316.818 106.809 316.818 106.74 316.801Z" fill="#25201A"/>
<path d="M98.2464 306.076L105.383 314.173C105.098 314.219 104.837 314.362 104.644 314.577L95.0275 308.529L94.5706 308.267C95.5584 306.99 96.8822 306.089 98.2464 306.076Z" fill="#FFA8A7"/>
<path d="M104.657 314.57C104.743 314.452 104.854 314.355 104.981 314.285C105.109 314.215 105.251 314.175 105.396 314.167L107.13 316.129L104.657 314.57Z" fill="#4A4034"/>
<path opacity="0.2" d="M94.584 308.233L27.1824 270.661C26.6995 271.407 26.3557 272.233 26.1677 273.101C25.9526 274.189 26.1677 275.157 26.9539 275.715L37.0339 281.508L38.1091 282.126L39.3994 282.912L93.5088 314.234C92.2387 312.238 93.6297 309.348 94.584 308.233Z" fill="black"/>
<path d="M51.287 120.96C49.5667 124.992 48.3839 129.884 47.8598 136.033C46.8787 147.585 50.7897 185.002 53.135 201.734C56.5353 229.69 60.7017 229.737 66.7564 234.42C77.1791 242.484 107.144 258.25 117.035 262.14C134.971 269.203 149.634 258.317 160.568 252.914C170.581 247.838 180.248 242.104 189.504 235.751C192.226 233.735 193.643 231.719 193.617 229.629C193.617 228.796 193.617 225.362 193.617 224.475C193.617 221.787 191.238 218.884 186.225 215.631C176.958 209.617 143.479 190.095 130.502 182.905C130.499 182.879 130.487 182.854 130.469 182.835C130.451 182.816 130.427 182.803 130.402 182.797C120.416 176.749 114.408 135.549 107.493 113.635C107.352 113.165 107.204 112.715 107.05 112.291C106.895 111.868 106.808 111.619 106.687 111.27C106.25 110.074 105.806 108.985 105.343 107.984" fill="#6F604E"/>
<path d="M193.644 224.448C193.644 221.76 191.265 218.857 186.252 215.604C176.992 209.59 143.513 190.068 130.536 182.878C130.533 182.852 130.521 182.828 130.503 182.808C130.485 182.789 130.461 182.776 130.436 182.771C120.45 176.723 114.442 135.522 107.527 113.608C107.117 112.24 106.635 110.894 106.082 109.576C106.042 109.476 105.995 109.381 105.955 109.281C105.834 108.992 105.699 108.696 105.558 108.394C105.498 108.246 105.43 108.091 105.363 107.943C104.241 105.585 102.675 102.997 100.747 101.277C100.07 100.647 99.3104 100.114 98.4886 99.6912C97.3664 99.0192 95.0077 97.7424 94.4163 97.3997C87.6358 93.3677 78.7453 98.2128 67.6573 104.281C60.7693 108.058 54.8893 112.553 51.3075 120.92C49.5872 124.952 48.4045 129.844 47.8803 135.993C46.8992 147.544 50.8102 184.961 53.1555 201.694C56.5558 229.649 60.7222 229.696 66.7769 234.38C77.1997 242.444 107.164 258.209 117.056 262.1C134.992 269.163 149.655 258.276 160.588 252.874C171.522 247.471 184.941 239.071 189.538 235.731C192.266 233.715 193.684 231.699 193.657 229.609C193.624 228.796 193.644 225.362 193.644 224.448Z" fill="#6F604E"/>
<path opacity="0.25" d="M193.644 224.448C193.644 221.76 191.265 218.857 186.252 215.604C176.992 209.59 143.513 190.068 130.536 182.878C130.533 182.852 130.521 182.828 130.503 182.808C130.485 182.789 130.461 182.776 130.436 182.771C120.45 176.723 114.442 135.522 107.527 113.608C107.117 112.24 106.635 110.894 106.082 109.576C106.042 109.476 105.995 109.381 105.955 109.281C105.834 108.992 105.699 108.696 105.558 108.394C105.498 108.246 105.43 108.091 105.363 107.943C104.241 105.585 102.675 102.997 100.747 101.277C100.07 100.647 99.3104 100.114 98.4886 99.6912C97.3664 99.0192 95.0077 97.7424 94.4163 97.3997C87.6358 93.3677 78.7453 98.2128 67.6573 104.281C60.7693 108.058 54.8893 112.553 51.3075 120.92C49.5872 124.952 48.4045 129.844 47.8803 135.993C46.8992 147.544 50.8102 184.961 53.1555 201.694C56.5558 229.649 60.7222 229.696 66.7769 234.38C77.1997 242.444 107.164 258.209 117.056 262.1C134.992 269.163 149.655 258.276 160.588 252.874C171.522 247.471 184.941 239.071 189.538 235.731C192.266 233.715 193.684 231.699 193.657 229.609C193.624 228.796 193.644 225.362 193.644 224.448Z" fill="white"/>
<path d="M160.554 247.699C170.573 242.627 180.244 236.896 189.504 230.543C195.72 226.034 195.149 221.411 186.238 215.631C173.86 207.601 123.399 178.967 123.399 178.967C123.399 178.967 59.6064 216.599 62.3481 223.568C65.0899 230.536 104.577 252.027 117.022 256.919C134.964 263.975 149.627 253.095 160.554 247.699Z" fill="#6F604E"/>
<path opacity="0.6" d="M160.554 247.699C170.573 242.627 180.244 236.896 189.504 230.543C195.72 226.034 195.149 221.411 186.238 215.631C173.86 207.601 123.399 178.967 123.399 178.967C123.399 178.967 59.6064 216.599 62.3481 223.568C65.0899 230.536 104.577 252.027 117.022 256.919C134.964 263.975 149.627 253.095 160.554 247.699Z" fill="white"/>
<path d="M98.4681 99.7248C91.7481 96.1968 83.0121 100.988 72.2601 106.902C65.3452 110.692 59.4518 115.188 55.87 123.588L51.287 120.96C54.862 112.594 60.7487 108.098 67.6367 104.321C78.7248 98.2733 87.6153 93.3811 94.3958 97.44C94.9872 97.776 97.3459 99.0864 98.4681 99.7248Z" fill="#6F604E"/>
<path opacity="0.5" d="M98.4681 99.7248C91.7481 96.1968 83.0121 100.988 72.2601 106.902C65.3452 110.692 59.4518 115.188 55.87 123.588L51.287 120.96C54.862 112.594 60.7487 108.098 67.6367 104.321C78.7248 98.2733 87.6153 93.3811 94.3958 97.44C94.9872 97.776 97.3459 99.0864 98.4681 99.7248Z" fill="white"/>
<path d="M107.52 113.635C107.379 113.165 105.067 105.128 100.733 101.311C98.7213 99.5043 96.1114 98.5082 93.4079 98.5152C87.5413 98.5152 80.5055 102.393 72.2466 106.902C71.5612 107.283 70.8892 107.672 70.2306 108.071C69.9685 108.219 69.7132 108.373 69.4645 108.528C69.2159 108.683 68.853 108.904 68.5506 109.099C68.2482 109.294 68.1071 109.381 67.8786 109.536C66.4247 110.494 65.0372 111.549 63.7257 112.694C63.5106 112.876 63.309 113.064 63.1007 113.266C62.2691 114.036 61.4816 114.853 60.742 115.712L60.3455 116.175C60.1909 116.37 60.0229 116.565 59.8818 116.76C59.7407 116.955 59.5794 117.156 59.4249 117.365C59.2703 117.573 59.1292 117.761 58.9881 117.976C58.3906 118.827 57.8388 119.708 57.3349 120.617C57.2677 120.731 57.2005 120.846 57.1401 120.967C57.0057 121.209 56.878 121.457 56.7503 121.713C56.5689 122.082 56.3941 122.452 56.2194 122.821C54.3378 126.968 53.0341 132.095 52.4831 138.62C50.877 157.597 57.382 220.329 63.9071 225.738C63.9071 225.738 62.9058 219.603 76.0031 211.337C84.9273 205.726 91.1903 201.009 100.713 196.338C123.917 184.914 130.428 182.797 130.428 182.797C120.436 176.736 114.428 135.549 107.52 113.635Z" fill="#6F604E"/>
<path opacity="0.4" d="M107.52 113.635C107.379 113.165 105.067 105.128 100.733 101.311C98.7213 99.5043 96.1114 98.5082 93.4079 98.5152C87.5413 98.5152 80.5055 102.393 72.2466 106.902C71.5612 107.283 70.8892 107.672 70.2306 108.071C69.9685 108.219 69.7132 108.373 69.4645 108.528C69.2159 108.683 68.853 108.904 68.5506 109.099C68.2482 109.294 68.1071 109.381 67.8786 109.536C66.4247 110.494 65.0372 111.549 63.7257 112.694C63.5106 112.876 63.309 113.064 63.1007 113.266C62.2691 114.036 61.4816 114.853 60.742 115.712L60.3455 116.175C60.1909 116.37 60.0229 116.565 59.8818 116.76C59.7407 116.955 59.5794 117.156 59.4249 117.365C59.2703 117.573 59.1292 117.761 58.9881 117.976C58.3906 118.827 57.8388 119.708 57.3349 120.617C57.2677 120.731 57.2005 120.846 57.1401 120.967C57.0057 121.209 56.878 121.457 56.7503 121.713C56.5689 122.082 56.3941 122.452 56.2194 122.821C54.3378 126.968 53.0341 132.095 52.4831 138.62C50.877 157.597 57.382 220.329 63.9071 225.738C63.9071 225.738 62.9058 219.603 76.0031 211.337C84.9273 205.726 91.1903 201.009 100.713 196.338C123.917 184.914 130.428 182.797 130.428 182.797C120.436 176.736 114.428 135.549 107.52 113.635Z" fill="white"/>
<path d="M77.1658 186.675C73.08 199.255 73.248 211.68 75.264 218.487C77.28 225.295 79.4438 234.683 97.7222 243.869C118.554 254.345 142.968 264.432 142.968 264.432L215.289 222.62L147.585 189.208L77.1658 186.675Z" fill="#6F604E"/>
<path opacity="0.15" d="M77.1658 186.675C73.08 199.255 73.248 211.68 75.264 218.487C77.28 225.295 79.4438 234.683 97.7222 243.869C118.554 254.345 142.968 264.432 142.968 264.432L215.289 222.62L147.585 189.208L77.1658 186.675Z" fill="black"/>
<path opacity="0.35" d="M98.112 230.281C97.514 229.75 96.936 229.219 96.3783 228.682C101.244 226.867 103.575 220.369 102.265 213.427C101.519 209.442 100.666 204.926 100.787 200.558H99.8996C99.7786 205.02 100.639 209.59 101.398 213.615C102.742 220.624 100.296 226.632 95.6593 228.016C84.961 217.493 85.3642 206.217 88.5697 190.982L87.7028 190.801C84.1882 207.5 84.5712 219.462 97.5207 230.973C106.035 238.54 138.829 252.954 151.852 259.318L152.786 258.801C139.81 252.443 106.653 237.888 98.112 230.281Z" fill="black"/>
<path opacity="0.35" d="M149.345 201.291C147.517 210.148 142.363 214.791 142.363 214.791C153.498 221.343 178.712 235.462 185.163 240.038L192.36 235.872L148.761 212.097C151.146 205.719 149.345 201.291 149.345 201.291Z" fill="black"/>
<path d="M85.9286 47.04C85.6128 36.6038 105.86 25.0253 125.032 37.632C144.204 50.2387 137.377 62.496 136.087 66.2189L136.759 119.851L74.5248 118.144C74.5248 118.144 75.8688 73.1203 75.6403 65.7283C75.4118 58.3363 77.8982 49.728 85.9286 47.04Z" fill="black"/>
<path d="M149.345 169.263L161.643 163.659L166.757 160.433C164.23 150.011 157.349 133.701 152.356 122.848C148.324 114.072 144.769 111.35 131.282 108.353L132.78 131.04L149.345 169.263Z" fill="#4A4034"/>
<path d="M73.248 204.886C73.5437 192.373 77.6362 179.659 77.5488 176.924C77.1523 165.057 73.6781 149.527 72.4886 142.652C69.9014 127.693 71.6486 115.839 75.0758 112.802C75.0758 112.802 86.4125 108.709 90.7334 107.574C93.3274 106.902 91.2979 107.574 95.2627 106.902C101.882 105.825 108.601 105.487 115.295 105.894C116.928 106.021 124.669 107.177 124.669 107.177C127.021 107.668 131.302 108.347 131.309 108.353C131.316 108.36 136.739 112.587 141.933 121.39C145.898 128.11 146.046 140.878 146.247 154.923C146.516 173.504 147.504 178.335 150.777 190.774C141.933 209.973 93.3206 216.001 73.248 204.886Z" fill="#25201A"/>
<path d="M75.0489 112.802C69.4847 114.462 64.8748 116.995 63.6249 127.855C62.3749 138.714 72.0517 163.867 73.7049 168.087C75.358 172.308 79.4437 178.497 83.3077 179.7C87.1717 180.902 90.2025 150.212 90.2025 150.212C90.2025 150.212 86.7618 134.272 85.3506 129.461C83.9394 124.649 79.5378 115.537 75.0489 112.802Z" fill="#4A4034"/>
<path d="M128.103 51.24C120.792 45.8169 107.869 46.2336 97.1174 54.5395C100.659 61.031 95.2626 65.7484 95.1887 69.7334C96.9695 75.2976 94.0598 77.9385 92.2655 75.9696C89.4969 70.3382 83.5967 70.5936 81.2044 74.3097C79.0406 77.6697 79.5647 82.6089 84.0134 87.1718C88.3478 91.6272 92.6351 88.798 92.6754 87.8438C92.6754 87.8438 93.9254 100.128 94.0799 102.587C94.2345 105.047 93.959 106.095 90.7199 107.379C104.026 111.209 114.146 111.485 118.46 105.249C116.41 104.731 116.484 103.186 116.242 101.143L115.718 97.0569C120.637 97.1107 123.151 96.5731 125.852 94.8998C129.884 92.4 132.915 85.8413 132.431 72.7238C132.055 63.0268 129.548 54.6336 128.103 51.24Z" fill="#FFBDA7"/>
<path d="M115.698 97.0838C106.855 96.8285 98.2262 94.5571 95.9884 90.6998C95.9884 90.6998 96.2706 95.0746 99.9801 96.9091C105.188 99.4762 116.108 100.175 116.108 100.175L115.698 97.0838Z" fill="#B16668"/>
<path d="M121.437 55.487L126.591 57.5568C126.468 57.895 126.279 58.2052 126.034 58.4688C125.789 58.7325 125.493 58.9442 125.165 59.0915C124.836 59.2388 124.482 59.3186 124.122 59.3262C123.762 59.3339 123.404 59.2692 123.07 59.136C122.385 58.8488 121.835 58.3119 121.532 57.6343C121.229 56.9566 121.195 56.1889 121.437 55.487Z" fill="black"/>
<path d="M120.778 53.2761C120.725 53.2145 120.652 53.1726 120.572 53.1567C120.491 53.1409 120.408 53.1522 120.335 53.1888C119.915 53.5108 119.58 53.931 119.359 54.4125C119.139 54.894 119.04 55.4221 119.072 55.9507C119.09 56.1421 119.135 56.3299 119.206 56.5085C119.276 56.7282 119.409 56.9224 119.589 57.0662C119.611 57.086 119.64 57.097 119.67 57.097C119.699 57.097 119.728 57.086 119.75 57.0662C119.918 56.9251 119.851 56.6227 119.851 56.3942C119.851 56.1657 119.851 56.0851 119.851 55.9238C119.854 55.637 119.897 55.3519 119.979 55.0771C120.146 54.541 120.452 54.0587 120.866 53.6793C120.96 53.5785 120.873 53.3702 120.778 53.2761ZM112.714 56.7705C112.613 56.6098 112.486 56.4668 112.338 56.3472C112.174 56.1856 111.966 56.0758 111.74 56.0313C111.711 56.0254 111.68 56.0295 111.653 56.0429C111.627 56.0563 111.605 56.0782 111.592 56.1053C111.512 56.3136 111.713 56.5488 111.814 56.7302C111.915 56.9117 111.975 56.999 112.049 57.1334C112.181 57.3881 112.278 57.6593 112.338 57.9398C112.442 58.4952 112.396 59.0682 112.204 59.5997C112.157 59.7542 112.331 59.9021 112.466 59.9357C112.542 59.9634 112.625 59.9659 112.702 59.9429C112.779 59.9199 112.847 59.8726 112.896 59.808C113.209 59.1575 113.283 58.4175 113.104 57.7181C113.024 57.3795 112.883 57.0584 112.688 56.7705H112.714Z" fill="#F0997A"/>
<path d="M104.933 60.9302L110.127 58.7798C110.006 58.4336 109.815 58.1158 109.565 57.8463C109.316 57.5767 109.015 57.361 108.679 57.2124C108.344 57.0638 107.981 56.9855 107.614 56.9823C107.247 56.9792 106.884 57.0512 106.546 57.1939C105.849 57.4918 105.294 58.0453 104.994 58.7405C104.694 59.4356 104.672 60.2194 104.933 60.9302Z" fill="black"/>
<path d="M105.591 68.4768C105.847 69.7133 107.352 70.4592 108.951 70.1299C110.551 69.8006 111.639 68.5373 111.391 67.3008C111.142 66.0643 110.329 68.1408 108.703 68.4701C107.076 68.7993 105.329 67.2403 105.591 68.4768Z" fill="black"/>
<path d="M122.432 66.8102C122.29 68.0669 123.487 69.2429 125.12 69.4378C126.753 69.6326 128.177 68.7658 128.318 67.5158C128.459 66.2659 127.055 67.9862 125.429 67.7914C123.802 67.5965 122.573 65.5536 122.432 66.8102Z" fill="black"/>
<path d="M119.562 83.2138C119.445 83.1119 119.316 83.024 119.179 82.9517C118.999 82.8933 118.815 82.8505 118.628 82.824L117.707 82.6493C117.035 82.535 116.363 82.4275 115.725 82.3402C115.087 82.2528 114.341 82.152 113.642 82.0848C112.951 81.9777 112.25 81.9439 111.552 81.984C111.263 81.984 111.31 82.4006 111.552 82.5014C112.242 82.7249 112.958 82.8582 113.682 82.8979C114.354 82.992 115.026 83.0794 115.698 83.1802L117.647 83.4557C118.304 83.6333 118.993 83.6632 119.663 83.543C119.784 83.496 119.616 83.2608 119.562 83.2138Z" fill="#B16668"/>
<path d="M98.0514 63.168L84.6719 71.783C85.4098 71.5926 86.1782 71.5504 86.9326 71.6588C87.6869 71.7673 88.4123 72.0242 89.0668 72.4147L98.6831 66.3197L98.0514 63.168Z" fill="#4A4034"/>
<path d="M134.259 59.8416C130.758 59.6669 126.04 59.8416 123.225 60.9638C120.073 62.2205 118.991 63.4301 117.224 63.5846C115.322 63.7392 114.065 62.7244 110.604 62.0121C107.843 61.4544 103.004 62.0726 99.5568 62.7244C98.3673 62.832 97.2988 63.2755 97.366 64.8614C97.5878 66.3398 98.5689 66.5078 98.8915 67.6972C99.7046 71.83 101.109 76.9574 106.566 76.823C117.835 76.7088 113.555 66.024 117.714 66.286C119.219 66.5145 119.179 69.4041 120.221 71.3865C120.613 72.1784 121.133 72.9003 121.76 73.5235C125.664 77.1389 132.478 74.5046 133.298 70.5869C134.111 68.6179 133.755 65.5603 134.642 63.8669C135.448 63.0201 136.006 60.1507 134.259 59.8416ZM113.494 69.888C113.316 71.0578 112.839 72.1619 112.11 73.0934C111.549 73.7468 110.858 74.2747 110.079 74.6429C109.301 75.0111 108.454 75.2113 107.594 75.2304C105.168 75.3849 102.668 74.424 101.889 72.1123C101.795 71.8972 101.707 71.6889 101.627 71.4873C101.035 69.7737 100.155 66.1113 101.015 64.9824C102.594 63.0806 110.658 62.664 113.192 65.2176C113.891 66.0777 113.79 68.1072 113.494 69.888ZM132.599 67.6435C132.404 68.8665 131.974 71.5209 129.736 72.8515C126.773 74.6054 122.398 73.3152 121.565 70.3785C119.327 64.2499 121.666 62.6371 127.848 61.5955C132.969 61.2125 133.338 62.496 132.599 67.6099V67.6435Z" fill="#4A4034"/>
<path d="M124.71 75.3849L117.66 79.4169L115.644 68.255C115.759 67.7025 116.021 67.1914 116.404 66.7766L124.71 75.3849Z" fill="#F0997A"/>
<path d="M93.959 101.109C91.943 101.573 92.0774 102.157 91.943 104.53C91.8086 106.902 89.3424 107.023 89.1542 108.011C88.9661 108.998 96.7545 116.632 110.289 114.092C123.729 111.579 122.324 105.921 122.324 105.921C121.84 105.128 120.799 105.067 119.152 104.503C117.506 103.938 117.472 103.528 117.445 102.305C117.419 101.082 117.123 100.787 116.209 101.17V102.131C116.209 102.131 116.209 104.523 107.507 105.034C97.9977 105.591 94.0665 102.614 94.0665 102.614L93.959 101.109Z" fill="#4A4034"/>
<path d="M104.16 94.0263C105.035 95.5002 105.309 97.2544 104.926 98.9251C104.677 99.9197 103.817 100.477 103.367 101.371C102.655 102.776 102.319 104.348 101.351 105.638C100.811 106.447 99.9852 107.023 99.0394 107.251C98.7367 106.511 98.655 105.699 98.8042 104.913C99.2481 102.147 99.4349 99.3463 99.3619 96.5463C99.2848 95.281 99.0592 94.0293 98.6899 92.8167C98.5152 92.2253 98.0179 90.6125 98.8109 90.2295C99.0141 90.1498 99.2366 90.1334 99.4493 90.1824C101.465 90.4445 102.655 91.56 103.716 93.2467C103.891 93.5021 104.046 93.7642 104.16 94.0263Z" fill="#FFBDA7"/>
<path d="M101.391 105.638C100.853 106.482 100.011 107.086 99.0393 107.325C98.4345 106.169 98.7772 104.832 98.8847 103.609C99.2812 99.9869 99.6508 96.2573 98.495 92.736C97.534 89.5373 99.261 89.4903 101.647 90.7738C104.066 92.5613 105.753 95.928 104.953 98.9252C105.538 96.4858 104.341 94.0599 102.829 92.2052C102.071 91.2692 101.008 90.6295 99.8255 90.3975C99.2812 90.29 98.6697 90.1824 98.5891 90.8948C98.5891 92.6823 99.5567 94.4295 99.5567 96.2708C99.6693 98.7427 99.5274 101.22 99.1334 103.663C98.9923 104.866 98.6361 106.116 99.1334 107.245L99.0662 107.211C100.008 107.003 100.838 106.449 101.391 105.659V105.638Z" fill="#B16668"/>
<path d="M96.2639 118.944C97.823 111.216 97.413 107.628 99.933 103.871C101.398 101.68 105.981 96.7613 107.506 95.377C109.032 93.9926 111.995 92.1178 114.374 90.2362C116.753 88.3546 117.445 87.8304 120.274 87.9379C124.159 88.0925 127.223 88.1194 128.601 88.872C129.978 89.6246 129.73 90.5856 128.184 91.6205C126.638 92.6554 123.876 92.4 122.989 92.4806C122.102 92.5613 120.106 92.9712 120.106 92.9712L115.584 97.3258C115.584 97.3258 121.249 99.6509 122.27 100.518C123.292 101.385 123.655 104.55 122.801 106.129C122.801 106.129 124.656 108.044 123.366 109.993C123.366 109.993 124.327 112.009 123.124 113.212C121.81 114.427 120.36 115.487 118.803 116.37C117.949 116.841 115.08 116.404 115.08 116.404C114.658 118.221 114.071 119.996 113.326 121.706C111.72 124.938 110.013 125.14 109.294 127.982L96.2639 118.944Z" fill="#FFBDA7"/>
<path d="M122.707 106.25C121.992 105.329 121.161 104.505 120.234 103.797C119.367 103.125 117.506 101.996 117.506 101.996C118.883 102.41 120.191 103.024 121.39 103.817C122.001 104.215 122.577 104.664 123.11 105.161C123.048 105.49 122.934 105.808 122.774 106.102L122.707 106.25Z" fill="#F0997A"/>
<path d="M122.479 108.273C122.907 108.565 123.314 108.889 123.695 109.24C123.589 109.557 123.445 109.86 123.265 110.141C122.727 108.884 120.046 107.056 120.046 107.056C120.9 107.368 121.717 107.776 122.479 108.273Z" fill="#F0997A"/>
<path d="M115.053 116.404C115.839 115.06 116.919 113.911 118.211 113.044C119.273 112.244 120.899 112.735 121.148 113.373C121.397 114.012 119.502 113.541 118.897 113.669C118.292 113.796 116.357 115.06 115.053 116.404Z" fill="#F0997A"/>
<path d="M113.978 96.8352C113.978 96.8352 115.376 95.5383 117.815 93.5223C120.254 91.5063 120.06 91.8355 122.015 91.8557C123.836 91.8557 127.646 91.9968 128.849 91.0695C128.637 91.2562 128.412 91.429 128.177 91.5869C126.672 92.5882 123.87 92.3664 122.983 92.4471C122.096 92.5277 120.1 92.9376 120.1 92.9376L115.396 97.4535L113.978 96.8352Z" fill="#F0997A"/>
<path d="M96.2639 118.944C96.7948 116.397 97.1778 113.817 97.5743 111.243C97.9708 108.669 98.5151 106.075 100 103.925C101.566 101.849 103.258 99.8718 105.067 98.0045C105.968 97.0637 106.861 96.1162 107.822 95.2493C108.783 94.3824 109.872 93.6634 110.934 92.9107C111.995 92.1581 113.064 91.4055 114.099 90.6125C115.065 89.756 116.135 89.0245 117.284 88.4352C118.467 87.9514 119.791 88.0723 121.088 88.1194C122.385 88.1664 123.688 88.2067 124.985 88.3075C126.282 88.4083 127.619 88.489 128.688 89.1207C128.948 89.2584 129.157 89.4748 129.286 89.7389C129.33 89.8687 129.341 90.0074 129.317 90.1424C129.294 90.2774 129.237 90.4044 129.152 90.5117C128.771 91.007 128.281 91.4073 127.72 91.681C126.523 92.1313 125.248 92.3369 123.97 92.2858C123.641 92.2858 123.298 92.2858 122.983 92.2858L122.008 92.4538L120.073 92.7898H120.026H119.992L115.456 97.1847L115.302 97.3392L115.503 97.4266C117.519 98.2867 119.609 99.1335 121.551 100.188C122.606 100.619 122.895 101.788 123.063 102.876C123.245 103.954 123.109 105.06 122.674 106.062L122.633 106.136L122.694 106.203C123.155 106.707 123.477 107.323 123.628 107.99C123.761 108.661 123.623 109.357 123.245 109.926L123.211 109.98V110.033C123.455 110.476 123.582 110.973 123.582 111.478C123.582 111.983 123.455 112.48 123.211 112.923C122.501 113.681 121.707 114.358 120.846 114.939C120.422 115.241 119.986 115.537 119.549 115.812C119.155 116.132 118.697 116.362 118.205 116.484C117.168 116.563 116.126 116.52 115.1 116.357H115.026V116.424C114.591 118.565 113.858 120.635 112.849 122.573C112.267 123.502 111.591 124.369 110.833 125.16C110.085 125.968 109.555 126.953 109.294 128.023C109.568 126.96 110.107 125.985 110.86 125.187C111.618 124.4 112.294 123.538 112.876 122.613C113.913 120.677 114.676 118.605 115.14 116.458L115.053 116.518C116.091 116.702 117.148 116.752 118.198 116.666C118.726 116.558 119.221 116.328 119.643 115.994C120.093 115.718 120.523 115.429 120.953 115.127C121.833 114.549 122.645 113.872 123.372 113.111C123.648 112.641 123.799 112.109 123.812 111.565C123.825 111.021 123.699 110.482 123.446 110V110.107C123.856 109.491 124.006 108.737 123.863 108.011C123.706 107.297 123.366 106.637 122.875 106.095V106.236C123.343 105.182 123.492 104.014 123.305 102.876C123.239 102.313 123.094 101.761 122.875 101.237C122.634 100.699 122.207 100.267 121.672 100.02C119.706 98.9822 117.687 98.0469 115.624 97.2183L115.671 97.4602L120.221 93.0787L120.147 93.1191L122.055 92.7965L123.016 92.6352C123.325 92.6352 123.655 92.6352 123.977 92.6352C125.307 92.694 126.634 92.4766 127.875 91.9968C128.489 91.6964 129.024 91.2542 129.434 90.7066C129.549 90.5554 129.624 90.3776 129.652 90.1897C129.681 90.0017 129.661 89.8097 129.595 89.6314C129.438 89.3053 129.185 89.0355 128.869 88.8586C127.66 88.1866 126.302 88.1395 125.012 88.0119C123.722 87.8842 122.405 87.8842 121.101 87.8371C119.797 87.7901 118.453 87.6759 117.19 88.1933C116.021 88.7988 114.931 89.5458 113.944 90.4176C112.923 91.2173 111.861 91.9699 110.799 92.7293C109.738 93.4887 108.669 94.2279 107.681 95.0947C106.693 95.9616 105.82 96.9293 104.926 97.8768C103.112 99.7538 101.419 101.745 99.8591 103.837C98.3606 106.035 97.8431 108.683 97.487 111.229C97.1308 113.776 96.7679 116.357 96.2639 118.944Z" fill="#B16668"/>
<path d="M96.2639 118.944C94.9199 125.785 77.9587 151.724 76.4668 158.101C74.975 164.479 79.2288 176.629 82.3939 179.189C85.559 181.749 93.0182 178.88 96.8553 171.797C100.692 164.714 106.982 137.76 109.274 127.982L96.2639 118.944Z" fill="#FFBDA7"/>
<path d="M74.3567 172.032C74.975 173.074 76.3055 174.048 76.487 175.137C76.9305 177.905 82.8038 179.31 85.0281 181.265C91.3113 185.23 106.929 184.975 118.776 182.912C138.069 179.552 159.768 171.998 164.761 166.394C167.771 163.034 167.093 160.507 166.058 158.888C164.163 155.904 161.912 154.802 160.635 154.002C155.259 150.642 148.304 151.314 146.173 151.939C137.843 157.016 129.022 161.24 119.844 164.546C116.638 165.553 113.311 166.129 109.953 166.26C107.869 166.199 106.633 166.192 105.417 164.956C103.468 162.985 101.195 161.364 98.6966 160.164C96.6806 159.17 95.5516 158.29 93.0518 156.3C92.5343 155.877 91.654 156.2 91.1769 156.677C90.9517 156.935 90.7926 157.245 90.713 157.578C90.6334 157.912 90.6358 158.26 90.7199 158.592C91.2172 161.992 94.006 164.317 95.8876 167.012C96.4875 167.711 96.7976 168.612 96.7545 169.532C96.6479 169.978 96.4289 170.39 96.1184 170.727C95.8079 171.065 95.4161 171.317 94.9804 171.461C92.494 172.422 79.7529 172.644 73.7721 168.289C73.7721 168.316 73.51 170.601 74.3567 172.032Z" fill="#FFBDA7"/>
<path d="M105.417 164.983C103.79 163.253 101.912 161.778 99.8457 160.608C98.8041 160.023 97.7491 159.533 96.7814 158.868C95.8137 158.202 94.8998 157.476 93.9791 156.737L93.3071 156.18C93.1691 156.055 93.0058 155.961 92.8283 155.906C92.6509 155.85 92.4635 155.833 92.279 155.857C91.9362 155.895 91.6075 156.014 91.32 156.205C91.0325 156.395 90.7946 156.652 90.6258 156.952C90.3578 157.557 90.3009 158.234 90.4646 158.874C90.5669 159.479 90.7382 160.069 90.9753 160.635C91.9363 162.913 93.6633 164.667 95.0611 166.488C95.7331 167.402 96.526 168.383 96.4521 169.398C96.3782 170.412 95.3433 171.172 94.2748 171.36C91.968 171.738 89.6268 171.865 87.2927 171.736C84.9442 171.656 82.6075 171.366 80.3106 170.869C77.993 170.434 75.7775 169.568 73.7788 168.316C75.7324 169.672 77.9229 170.65 80.2367 171.199C82.5428 171.766 84.8954 172.124 87.2658 172.267C89.6502 172.457 92.0487 172.358 94.4092 171.972C95.0655 171.891 95.6794 171.604 96.1624 171.153C96.6454 170.701 96.9727 170.108 97.0972 169.458C97.1779 168.027 96.2707 167.012 95.6054 166.098C94.1471 164.217 92.447 162.537 91.5734 160.42C91.3463 159.899 91.1817 159.353 91.0828 158.794C90.9425 158.282 90.9755 157.739 91.1769 157.248C91.3028 157.035 91.4751 156.853 91.6811 156.716C91.887 156.578 92.1212 156.489 92.3663 156.455C92.4753 156.432 92.5882 156.437 92.695 156.469C92.8017 156.5 92.8989 156.558 92.9778 156.636L93.6835 157.174C94.6243 157.893 95.5651 158.619 96.5731 159.257C97.5811 159.896 98.6764 160.393 99.718 160.931C101.808 161.991 103.728 163.357 105.417 164.983Z" fill="#F0997A"/>
<path d="M49.7682 248.553V262.987L141.369 315.927V301.493L49.7682 248.553Z" fill="#25201A"/>
<path d="M141.369 301.493L301.177 209.22V223.655L141.369 315.927V301.493Z" fill="#4A4034"/>
<path d="M141.369 296.029L46.0924 240.979L208.958 146.94L304.228 201.996L141.369 296.029Z" fill="#6F604E"/>
<path opacity="0.8" d="M141.369 296.029L46.0924 240.979L208.958 146.94L304.228 201.996L141.369 296.029Z" fill="white"/>
<path d="M46.0924 240.979V248.633L141.369 303.684V296.029L46.0924 240.979Z" fill="#6F604E"/>
<path opacity="0.5" d="M46.0924 240.979V248.633L141.369 303.684V296.029L46.0924 240.979Z" fill="white"/>
<path d="M141.369 303.684L304.234 209.651L304.228 201.996L141.369 296.029V303.684Z" fill="#6F604E"/>
<path opacity="0.65" d="M141.369 296.029L304.228 201.996L304.234 209.651L141.369 303.684V296.029Z" fill="white"/>
<path d="M41.6639 235.281C39.406 233.533 37.101 231.853 34.8297 230.12C33.8082 229.331 32.7823 228.552 31.7519 227.781C31.1874 227.364 30.623 226.941 30.045 226.538C29.7757 226.3 29.4492 226.135 29.0975 226.061C28.9362 226.061 28.5532 226.108 28.4658 226.276L28.3852 226.424C28.3254 226.527 28.2974 226.646 28.3046 226.766C28.3117 226.885 28.3538 227 28.4255 227.096C29.3977 228.072 30.4447 228.971 31.557 229.784C32.5113 230.55 33.479 231.289 34.4399 232.035C36.4223 233.56 38.3846 235.119 40.4073 236.591C40.5313 236.699 40.6819 236.771 40.8433 236.801C41.0047 236.83 41.1711 236.816 41.3253 236.76C41.4795 236.704 41.6159 236.608 41.7204 236.481C41.8248 236.354 41.8935 236.202 41.9193 236.04C41.9473 235.902 41.9384 235.759 41.8936 235.626C41.8487 235.493 41.7695 235.374 41.6639 235.281Z" fill="#E0E0E0"/>
<path d="M39.9033 239.01C37.1481 238.264 34.3728 237.586 31.6176 236.853C30.3744 236.524 29.1244 236.181 27.8745 235.872C27.2025 235.697 26.5305 235.529 25.8249 235.375C25.4867 235.254 25.1225 235.227 24.7699 235.294C24.6153 235.348 24.286 235.543 24.2659 235.738V235.906C24.2515 236.024 24.2717 236.144 24.3242 236.252C24.3767 236.359 24.4591 236.449 24.5616 236.51C25.8324 237.035 27.1423 237.46 28.4793 237.78C29.6486 238.123 30.8246 238.452 32.0006 238.762C34.4198 239.434 36.8256 240.106 39.2582 240.69C39.4138 240.741 39.5803 240.75 39.7404 240.715C39.9005 240.681 40.0484 240.604 40.169 240.493C40.2895 240.382 40.3783 240.241 40.4261 240.084C40.4739 239.928 40.479 239.761 40.4409 239.602C40.413 239.464 40.3483 239.336 40.2537 239.232C40.159 239.128 40.038 239.051 39.9033 239.01Z" fill="#E0E0E0"/>
<path d="M38.4652 242.679C35.7772 243.56 33.0556 244.507 30.3475 245.367C29.1244 245.771 27.8947 246.174 26.6783 246.59C26.0063 246.819 25.3343 247.047 24.6623 247.303C24.3139 247.385 23.9939 247.559 23.735 247.807C23.6342 247.941 23.4662 248.284 23.5535 248.479L23.6342 248.633C23.6865 248.741 23.7692 248.83 23.8719 248.891C23.9746 248.952 24.0928 248.982 24.2121 248.976C25.5611 248.718 26.8887 248.359 28.1836 247.901C29.3529 247.545 30.5087 247.168 31.6713 246.792C34.0502 246.019 36.4425 245.28 38.8012 244.44C38.9598 244.398 39.1042 244.314 39.2196 244.198C39.335 244.081 39.4172 243.936 39.4576 243.777C39.498 243.618 39.4953 243.451 39.4496 243.294C39.4039 243.136 39.3169 242.994 39.1977 242.881C39.1022 242.789 38.9852 242.722 38.8572 242.687C38.7292 242.651 38.5944 242.649 38.4652 242.679Z" fill="#E0E0E0"/>
<path d="M310 206.304C312.688 206.835 315.376 207.292 318.064 207.803C319.281 208.031 320.49 208.266 321.7 208.475C322.372 208.596 323.044 208.71 323.716 208.811C324.048 208.901 324.398 208.901 324.73 208.811C324.872 208.75 325.174 208.542 325.181 208.354V208.199C325.188 208.085 325.162 207.97 325.104 207.871C325.047 207.772 324.961 207.692 324.858 207.641C323.61 207.228 322.331 206.911 321.034 206.694C319.899 206.445 318.75 206.223 317.607 206.022C315.262 205.558 312.903 205.068 310.558 204.678C310.405 204.64 310.246 204.643 310.095 204.687C309.944 204.731 309.808 204.815 309.7 204.929C309.592 205.043 309.516 205.184 309.48 205.337C309.444 205.49 309.45 205.65 309.496 205.8C309.533 205.919 309.598 206.026 309.686 206.114C309.774 206.202 309.882 206.267 310 206.304Z" fill="#E0E0E0"/>
<path d="M309.92 202.339C312.608 201.802 315.255 201.19 317.93 200.639C319.139 200.39 320.342 200.142 321.545 199.88C322.217 199.739 322.889 199.591 323.514 199.423C323.855 199.384 324.178 199.251 324.448 199.04C324.562 198.932 324.764 198.623 324.697 198.448L324.636 198.3C324.598 198.192 324.53 198.098 324.439 198.027C324.349 197.957 324.24 197.914 324.126 197.904C322.815 198.001 321.515 198.198 320.235 198.495C319.086 198.704 317.943 198.939 316.801 199.167C314.456 199.638 312.097 200.081 309.772 200.619C309.616 200.641 309.469 200.704 309.346 200.802C309.223 200.9 309.129 201.029 309.073 201.176C309.016 201.322 309 201.481 309.027 201.636C309.053 201.791 309.12 201.937 309.221 202.057C309.303 202.161 309.41 202.241 309.533 202.291C309.655 202.34 309.789 202.357 309.92 202.339Z" fill="#E0E0E0"/>
<path d="M309.577 198.589C311.526 196.674 313.421 194.712 315.363 192.79C316.236 191.916 317.11 191.05 317.97 190.176C318.447 189.692 318.918 189.215 319.375 188.718C319.635 188.495 319.832 188.207 319.946 187.884C319.979 187.73 319.979 187.367 319.825 187.253L319.697 187.159C319.604 187.082 319.489 187.036 319.369 187.027C319.248 187.019 319.128 187.048 319.025 187.112C317.981 187.909 316.999 188.785 316.089 189.732C315.242 190.532 314.415 191.352 313.582 192.172C311.875 193.845 310.148 195.532 308.488 197.232C308.37 197.336 308.282 197.469 308.233 197.619C308.184 197.768 308.175 197.928 308.209 198.082C308.243 198.235 308.317 198.377 308.424 198.493C308.531 198.608 308.667 198.692 308.818 198.737C308.946 198.784 309.084 198.794 309.218 198.768C309.351 198.742 309.476 198.68 309.577 198.589Z" fill="#E0E0E0"/>
<path d="M188.247 196.5L240.388 226.605L277.63 205.101L225.49 174.996L188.247 196.5Z" fill="#FAFAFA"/>
<path opacity="0.3" d="M279.223 201.19L275.043 203.603L225.49 174.996L192.434 194.08L189.84 192.589L227.089 171.085L279.223 201.19Z" fill="#6F604E"/>
<path d="M275.043 203.603L241.98 222.694L192.434 194.08L225.49 174.996L275.043 203.603Z" fill="#E0E0E0"/>
<path d="M190.593 190.29L242.733 220.396L279.975 198.892L227.835 168.786L190.593 190.29Z" fill="#FAFAFA"/>
<path opacity="0.1" d="M131.174 275.419L218.79 224.831L161.838 191.943L74.2224 242.538L131.174 275.419Z" fill="black"/>
<path d="M131.1 271.36L213.629 223.709L160.904 193.267L78.3754 240.919L131.1 271.36Z" fill="#6F604E"/>
<path opacity="0.15" d="M131.1 271.36L213.629 223.709L160.904 193.267L78.3754 240.919L131.1 271.36Z" fill="black"/>
<path d="M171.273 246.9V245.428C171.273 243.613 174.512 238.426 178.557 236.087L211.344 217.164V223.776L171.273 246.9Z" fill="#F5F5F5"/>
<path d="M211.331 217.164L178.544 236.087C174.512 238.419 171.239 243.613 171.259 245.428V246.9L120.826 217.782V216.303C120.826 214.489 124.058 209.301 128.11 206.963L160.877 188.046L211.331 217.164Z" fill="#FAFAFA"/>
<path d="M211.331 217.164L178.544 236.087C174.512 238.419 171.239 243.613 171.259 245.428V246.9L120.826 217.782V216.303C120.826 214.489 124.058 209.301 128.11 206.963L160.897 188.032L211.331 217.164Z" fill="#FAFAFA"/>
<path d="M171.259 245.535L168.121 243.714L163.968 241.322C166.286 241.053 167.926 241.403 169.062 242.054C169.691 242.404 170.222 242.906 170.606 243.514C170.99 244.122 171.214 244.817 171.259 245.535Z" fill="#F0F0F0"/>
<path d="M171.259 245.535L168.121 243.714L163.968 241.322C166.286 241.053 167.926 241.403 169.062 242.054C169.691 242.404 170.222 242.906 170.606 243.514C170.99 244.122 171.214 244.817 171.259 245.535Z" fill="#E0E0E0"/>
<path d="M131.114 272.731L131.1 271.36L78.3754 240.919V242.283L131.114 272.731Z" fill="#6F604E"/>
<path opacity="0.3" d="M131.114 272.731L131.1 271.36L78.3754 240.919V242.283L131.114 272.731Z" fill="black"/>
<path d="M131.114 272.731L213.642 225.086L213.629 223.709L131.1 271.36L131.114 272.731Z" fill="#6F604E"/>
<path d="M171.259 245.535C171.259 243.714 167.899 242.175 163.867 244.527L131.094 263.303V270.097L171.273 246.9C171.273 246.9 171.273 247.35 171.259 245.535Z" fill="#F5F5F5"/>
<path d="M131.094 270.097V263.303L80.6602 234.185V240.979L131.094 270.097Z" fill="#EBEBEB"/>
<path d="M163.874 244.527L162.402 245.367L131.094 263.303L86.5469 237.586L80.64 234.185L113.42 215.41C116.39 213.703 118.05 213.837 119.22 214.502L170.345 244.017C168.517 242.975 166.367 243.197 163.874 244.527Z" fill="#FAFAFA"/>
<path d="M128.802 258.182L156.71 242.081L158.182 241.241L159.257 241.86L157.786 242.7L129.877 258.807L128.802 258.182Z" fill="#E0E0E0"/>
<path d="M126.229 256.697L154.137 240.596L155.602 239.756L156.677 240.374L155.212 241.214L127.297 257.316L126.229 256.697Z" fill="#E0E0E0"/>
<path d="M123.648 255.212L151.556 239.104L153.028 238.264L154.103 238.889L152.631 239.729L124.723 255.83L123.648 255.212Z" fill="#E0E0E0"/>
<path d="M121.068 253.72L148.982 237.619L150.447 236.779L151.523 237.397L150.058 238.237L122.143 254.345L121.068 253.72Z" fill="#E0E0E0"/>
<path d="M118.494 252.235L146.402 236.127L147.874 235.287L148.949 235.912L147.477 236.752L119.569 252.853L118.494 252.235Z" fill="#E0E0E0"/>
<path d="M115.913 250.743L143.828 234.642L145.293 233.802L146.368 234.42L144.903 235.26L116.989 251.368L115.913 250.743Z" fill="#E0E0E0"/>
<path d="M113.339 249.258L141.248 233.15L142.719 232.31L143.788 232.935L142.323 233.775L114.415 249.876L113.339 249.258Z" fill="#E0E0E0"/>
<path d="M110.759 247.766L138.674 231.665L140.139 230.825L141.214 231.444L139.742 232.284L111.834 248.391L110.759 247.766Z" fill="#E0E0E0"/>
<path d="M108.185 246.281L136.093 230.18L137.565 229.34L138.64 229.958L137.169 230.798L109.26 246.9L108.185 246.281Z" fill="#E0E0E0"/>
<path d="M105.605 244.796L133.52 228.688L134.985 227.848L136.06 228.473L134.588 229.307L106.68 245.414L105.605 244.796Z" fill="#E0E0E0"/>
<path d="M103.031 243.304L130.939 227.203L132.411 226.363L133.479 226.981L132.014 227.821L104.106 243.923L103.031 243.304Z" fill="#E0E0E0"/>
<path d="M100.451 241.819L128.359 225.711L129.83 224.871L130.906 225.496L129.434 226.336L101.526 242.437L100.451 241.819Z" fill="#E0E0E0"/>
<path d="M97.8768 240.327L125.785 224.226L127.257 223.386L128.325 224.004L126.86 224.844L98.9453 240.952L97.8768 240.327Z" fill="#E0E0E0"/>
<path d="M95.2964 238.842L123.205 222.734L124.676 221.894L125.751 222.519L124.28 223.359L96.3716 239.46L95.2964 238.842Z" fill="#E0E0E0"/>
<path d="M92.7225 237.35L120.631 221.249L122.096 220.409L123.171 221.028L121.706 221.868L93.791 237.975L92.7225 237.35Z" fill="#E0E0E0"/>
<path d="M90.1421 235.865L118.05 219.757L119.522 218.924L120.597 219.542L119.125 220.382L91.2173 236.484L90.1421 235.865Z" fill="#E0E0E0"/>
<path d="M87.5684 234.373L115.477 218.272L116.941 217.432L118.017 218.057L116.552 218.891L88.6368 234.998L87.5684 234.373Z" fill="#E0E0E0"/>
<path opacity="0.1" d="M164.183 242.767C163.578 242.827 162.295 243.237 161.589 243.398C158.605 244.07 153.35 246.469 148.317 248.989C141.597 252.349 135.253 255.951 135.253 255.951L89.1072 229.347L113.44 215.41C114.371 214.841 115.385 214.419 116.444 214.16C117.181 214.28 117.893 214.526 118.547 214.885L118.87 214.321C118.997 214.373 119.121 214.434 119.24 214.502L170.365 244.017C167.496 242.364 166.159 242.592 164.183 242.767Z" fill="black"/>
<path d="M131.06 264.781L136.067 262.248L131.094 265.272L126.101 262.389L131.06 264.781Z" fill="#E6E6E6"/>
<path d="M131.1 268.182L140.273 262.886L131.1 267.826L120.785 262.228L131.1 268.182Z" fill="#E6E6E6"/>
<path d="M80.6602 235.684L88.3747 240.334L80.6602 236.396V235.684Z" fill="#E6E6E6"/>
<path d="M80.6736 238.338L92.1245 245.34L80.6602 238.97L80.6736 238.338Z" fill="#E6E6E6"/>
<path d="M163.968 241.322C163.306 241.396 162.648 241.509 161.999 241.658C159.022 242.33 153.767 244.729 148.727 247.249C142.007 250.609 135.663 254.211 135.663 254.211L85.2163 225.12C85.2163 225.12 104.415 214.066 111.948 212.607C115.483 211.935 117.654 212.399 118.971 213.152L169.068 242.048C167.94 241.403 166.3 241.053 163.968 241.322Z" fill="#F5F5F5"/>
<path d="M163.35 238.748C162.214 238.076 160.568 237.747 158.256 238.009C157.594 238.085 156.936 238.2 156.287 238.352C153.45 239.151 150.693 240.209 148.048 241.51C146.409 242.269 144.688 243.096 143.015 243.943C138.983 245.959 135.059 248.076 132.592 249.433L133.735 250.105C136.208 248.761 140.112 246.637 144.164 244.608C145.844 243.768 147.524 242.935 149.191 242.182C151.835 240.88 154.593 239.821 157.429 239.017C158.079 238.868 158.736 238.755 159.398 238.681C161.717 238.412 163.356 238.762 164.492 239.42L163.35 238.748Z" fill="#E0E0E0"/>
<path d="M160.763 237.256C159.634 236.584 157.987 236.255 155.669 236.524C155.009 236.598 154.354 236.711 153.707 236.86C150.869 237.659 148.111 238.719 145.468 240.025C143.828 240.778 142.108 241.604 140.435 242.451C136.403 244.467 132.478 246.584 130.005 247.948L131.154 248.62C133.627 247.276 137.532 245.152 141.577 243.13C143.264 242.283 144.937 241.456 146.61 240.697C149.255 239.395 152.013 238.335 154.849 237.532C155.498 237.383 156.156 237.27 156.818 237.196C159.136 236.934 160.776 237.276 161.912 237.935L160.763 237.256Z" fill="#E0E0E0"/>
<path d="M158.182 235.771C157.046 235.099 155.407 234.763 153.088 235.032C152.426 235.106 151.769 235.219 151.119 235.368C148.283 236.176 145.527 237.245 142.887 238.56C141.241 239.313 139.527 240.146 137.854 240.986C133.822 243.002 129.898 245.125 127.425 246.483L128.574 247.155C131.04 245.811 134.951 243.687 138.997 241.665C140.683 240.818 142.357 239.991 144.03 239.232C146.675 237.93 149.432 236.87 152.269 236.067C152.919 235.921 153.576 235.809 154.237 235.731C156.556 235.469 158.196 235.818 159.331 236.47L158.182 235.771Z" fill="#E0E0E0"/>
<path d="M155.602 234.279C154.466 233.607 152.826 233.271 150.508 233.54C149.846 233.615 149.188 233.727 148.539 233.876C145.702 234.68 142.945 235.739 140.3 237.041C138.66 237.801 136.94 238.627 135.267 239.467C131.235 241.483 127.317 243.607 124.844 244.964L125.993 245.636C128.459 244.292 132.364 242.175 136.416 240.146C138.103 239.299 139.81 238.473 141.449 237.713C144.094 236.412 146.851 235.355 149.688 234.555C150.337 234.402 150.994 234.29 151.657 234.219C153.969 233.95 155.615 234.3 156.751 234.951L155.602 234.279Z" fill="#E0E0E0"/>
<path d="M153.021 232.788C151.885 232.116 150.246 231.786 147.927 232.048C147.266 232.126 146.608 232.238 145.958 232.384C143.122 233.188 140.364 234.247 137.72 235.549C136.08 236.309 134.36 237.135 132.686 237.982C128.654 239.998 124.73 242.115 122.264 243.472L123.406 244.144C125.879 242.8 129.783 240.677 133.836 238.647C135.516 237.801 137.229 236.974 138.869 236.221C141.512 234.915 144.27 233.856 147.108 233.056C147.755 232.906 148.41 232.794 149.07 232.72C151.388 232.452 153.035 232.801 154.164 233.453L153.021 232.788Z" fill="#E0E0E0"/>
<path d="M150.441 231.296C149.305 230.624 147.659 230.294 145.347 230.556C144.685 230.633 144.027 230.747 143.378 230.899C140.541 231.699 137.784 232.756 135.139 234.058C133.5 234.817 131.779 235.644 130.106 236.49C126.074 238.506 122.149 240.623 119.683 241.98L120.826 242.652C123.299 241.308 127.203 239.185 131.255 237.156C132.935 236.316 134.615 235.482 136.288 234.73C138.929 233.424 141.685 232.364 144.52 231.564C145.17 231.415 145.827 231.303 146.489 231.228C148.808 230.96 150.447 231.309 151.583 231.968L150.441 231.296Z" fill="#E0E0E0"/>
<path d="M147.84 229.824C146.711 229.152 145.065 228.823 142.746 229.092C142.086 229.166 141.431 229.278 140.784 229.428C137.946 230.226 135.188 231.285 132.545 232.593C130.906 233.345 129.185 234.172 127.512 235.019C123.48 237.035 119.555 239.151 117.083 240.509L118.232 241.181C120.705 239.837 124.609 237.713 128.654 235.684C130.341 234.844 132.048 234.017 133.688 233.258C136.332 231.956 139.09 230.896 141.926 230.093C142.576 229.943 143.233 229.831 143.895 229.757C146.214 229.495 147.853 229.837 148.989 230.496L147.84 229.824Z" fill="#E0E0E0"/>
<path d="M145.273 228.319C144.137 227.647 142.498 227.311 140.179 227.58C139.517 227.654 138.86 227.766 138.21 227.916C135.375 228.715 132.619 229.775 129.978 231.081C128.332 231.833 126.618 232.667 124.945 233.507C120.913 235.523 116.988 237.646 114.516 239.004L115.665 239.676C118.131 238.332 122.042 236.208 126.087 234.185C127.774 233.339 129.481 232.512 131.121 231.753C133.765 230.45 136.523 229.391 139.359 228.588C140.009 228.441 140.667 228.329 141.328 228.252C143.647 227.989 145.286 228.339 146.422 228.991L145.273 228.319Z" fill="#E0E0E0"/>
<path d="M138.748 226.746C138.086 226.823 137.428 226.937 136.779 227.089C133.795 227.761 128.54 230.153 123.507 232.68C119.475 234.696 115.55 236.813 113.084 238.17L111.935 237.498C114.408 236.154 118.312 234.031 122.358 232.001C127.391 229.481 132.653 227.082 135.63 226.41C136.279 226.261 136.937 226.149 137.599 226.074C139.917 225.805 141.557 226.155 142.692 226.813L143.835 227.485C142.706 226.834 141.06 226.464 138.748 226.746Z" fill="#E0E0E0"/>
<path d="M136.161 225.261C135.501 225.336 134.846 225.448 134.198 225.597C131.215 226.269 125.96 228.668 120.926 231.188C116.894 233.204 112.97 235.321 110.497 236.678L109.355 236.006C111.821 234.662 115.732 232.539 119.777 230.509C124.811 227.989 130.072 225.59 133.049 224.918C133.699 224.769 134.356 224.657 135.018 224.582C137.337 224.32 138.976 224.67 140.112 225.322L141.254 225.994C140.125 225.342 138.479 224.992 136.161 225.261Z" fill="#E0E0E0"/>
<path d="M133.58 223.776C132.918 223.85 132.261 223.963 131.611 224.112C128.634 224.784 123.379 227.183 118.346 229.703C114.314 231.719 110.389 233.843 107.916 235.2L106.774 234.528C109.24 233.184 113.145 231.06 117.197 229.038C122.23 226.511 127.485 224.112 130.469 223.44C131.119 223.293 131.776 223.181 132.438 223.104C134.749 222.842 136.396 223.191 137.531 223.843L138.674 224.515C137.538 223.85 135.899 223.5 133.58 223.776Z" fill="#E0E0E0"/>
<path d="M131 222.277C130.338 222.352 129.68 222.464 129.031 222.613C126.054 223.285 120.792 225.684 115.759 228.204C111.727 230.22 107.809 232.344 105.336 233.701L104.187 233.029C106.66 231.685 110.564 229.569 114.616 227.539C119.65 225.019 124.905 222.613 127.888 221.948C128.535 221.797 129.191 221.682 129.851 221.605C132.169 221.343 133.815 221.693 134.944 222.345L136.093 223.017C134.958 222.358 133.318 222.009 131 222.277Z" fill="#E0E0E0"/>
<path d="M128.419 220.786C127.757 220.86 127.1 220.972 126.45 221.122C123.467 221.794 118.212 224.193 113.178 226.719C109.146 228.735 105.222 230.852 102.756 232.21L101.606 231.538C104.079 230.194 107.984 228.07 112.036 226.041C117.069 223.521 122.324 221.122 125.301 220.45C125.951 220.3 126.608 220.188 127.27 220.114C129.589 219.845 131.228 220.194 132.364 220.846L133.513 221.518C132.384 220.873 130.738 220.524 128.419 220.786Z" fill="#E0E0E0"/>
<path d="M125.839 219.294C125.177 219.371 124.52 219.483 123.87 219.63C120.886 220.302 115.631 222.701 110.598 225.228C106.566 227.244 102.641 229.36 100.175 230.718L99.0259 230.046C101.499 228.702 105.403 226.578 109.449 224.549C114.482 222.029 119.744 219.63 122.721 218.958C123.37 218.808 124.027 218.696 124.69 218.622C127.008 218.353 128.648 218.702 129.783 219.361L130.926 220.033C129.797 219.381 128.15 219.032 125.839 219.294Z" fill="#E0E0E0"/>
<path d="M123.252 217.802C122.591 217.879 121.936 217.993 121.289 218.145C118.306 218.817 113.051 221.216 108.017 223.736C103.985 225.752 100.061 227.868 97.5878 229.226L96.4454 228.554C98.9117 227.21 102.823 225.086 106.868 223.057C111.901 220.537 117.156 218.138 120.14 217.466C120.79 217.317 121.447 217.204 122.109 217.13C124.428 216.861 126.067 217.211 127.203 217.869L128.345 218.541C127.216 217.889 125.57 217.54 123.252 217.802Z" fill="#E0E0E0"/>
<path d="M120.671 216.317C120.009 216.391 119.352 216.503 118.702 216.653C115.725 217.325 110.47 219.724 105.437 222.244C101.405 224.26 97.4804 226.377 95.0074 227.741L93.865 227.069C96.3312 225.725 100.236 223.601 104.288 221.579C109.321 219.052 114.576 216.653 117.56 215.981C118.209 215.831 118.866 215.719 119.529 215.645C121.84 215.383 123.487 215.732 124.622 216.384L125.765 217.056C124.629 216.384 122.976 216.048 120.671 216.317Z" fill="#E0E0E0"/>
<path d="M118.091 214.825C117.428 214.899 116.771 215.012 116.122 215.161C113.145 215.833 107.883 218.232 102.85 220.752C98.8177 222.768 94.8999 224.892 92.4269 226.249L91.2778 225.577C93.7508 224.233 97.6551 222.109 101.707 220.087C106.741 217.56 111.996 215.161 114.979 214.489C115.627 214.343 116.282 214.231 116.942 214.153C119.26 213.891 120.906 214.24 122.035 214.892L123.184 215.564C122.049 214.906 120.409 214.556 118.091 214.825Z" fill="#E0E0E0"/>
<path d="M173.826 233.365C172.284 234.298 170.906 235.479 169.747 236.86L168.692 236.248C169.855 234.871 171.235 233.693 172.778 232.761L202.164 215.833L203.213 216.438L173.826 233.365Z" fill="#E0E0E0"/>
<path d="M173.826 233.365C172.284 234.298 170.906 235.479 169.747 236.86L168.692 236.248C169.855 234.871 171.235 233.693 172.778 232.761L202.164 215.833L203.213 216.438L173.826 233.365Z" fill="#E0E0E0"/>
<path d="M171.246 231.874C169.705 232.809 168.327 233.989 167.167 235.368L166.118 234.763C167.277 233.382 168.655 232.202 170.197 231.269L199.584 214.368L200.632 214.973L171.246 231.874Z" fill="#E0E0E0"/>
<path d="M168.672 230.388C167.128 231.319 165.748 232.497 164.586 233.876L163.538 233.271C164.698 231.892 166.076 230.712 167.617 229.777L197.004 212.856L198.052 213.461L168.672 230.388Z" fill="#E0E0E0"/>
<path d="M166.092 228.897C164.546 229.828 163.165 231.009 162.006 232.391L160.958 231.786C162.117 230.404 163.498 229.223 165.043 228.292L194.423 211.364L195.471 211.969L166.092 228.897Z" fill="#E0E0E0"/>
<path d="M163.511 227.412C161.969 228.342 160.591 229.52 159.432 230.899L158.377 230.294C159.54 228.915 160.92 227.735 162.463 226.8L191.849 209.879L192.898 210.484L163.511 227.412Z" fill="#E0E0E0"/>
<path d="M160.931 225.92C159.388 226.853 158.01 228.033 156.852 229.414L155.803 228.809C156.962 227.428 158.34 226.248 159.882 225.315L189.269 208.387L190.317 208.992L160.931 225.92Z" fill="#E0E0E0"/>
<path d="M158.357 224.448C156.813 225.381 155.432 226.562 154.271 227.942L153.223 227.338C154.383 225.959 155.761 224.778 157.302 223.843L186.688 206.916L187.737 207.527L158.357 224.448Z" fill="#E0E0E0"/>
<path d="M155.776 222.943C154.231 223.874 152.85 225.055 151.691 226.437L150.642 225.832C151.802 224.45 153.182 223.269 154.728 222.338L184.128 205.41L185.176 206.015L155.776 222.943Z" fill="#E0E0E0"/>
<path d="M153.216 221.451C151.674 222.384 150.296 223.565 149.137 224.945L148.082 224.34C149.243 222.96 150.624 221.779 152.168 220.846L181.548 203.918L182.603 204.523L153.216 221.451Z" fill="#E0E0E0"/>
<path d="M150.615 219.966C149.073 220.899 147.695 222.079 146.536 223.46L145.488 222.849C146.647 221.47 148.025 220.292 149.567 219.361L178.954 202.433L180.002 203.038L150.615 219.966Z" fill="#E0E0E0"/>
<path d="M148.042 218.474C146.498 219.407 145.117 220.588 143.956 221.968L142.908 221.364C144.066 219.983 145.444 218.802 146.987 217.869L176.373 200.928L177.422 201.533L148.042 218.474Z" fill="#E0E0E0"/>
<path d="M145.461 216.989C143.916 217.917 142.535 219.096 141.375 220.476L140.327 219.872C141.488 218.491 142.869 217.31 144.413 216.377L173.793 199.456L174.841 200.061L145.461 216.989Z" fill="#E0E0E0"/>
<path d="M142.881 215.497C141.337 216.428 139.959 217.609 138.802 218.991L137.76 218.4C138.92 217.017 140.3 215.837 141.846 214.906L171.226 197.978L172.281 198.583L142.881 215.497Z" fill="#E0E0E0"/>
<path d="M140.3 214.005C138.759 214.94 137.382 216.12 136.221 217.5L135.173 216.895C136.333 215.516 137.711 214.335 139.252 213.4L168.672 196.479L169.72 197.084L140.3 214.005Z" fill="#E0E0E0"/>
<path d="M137.76 212.52C136.214 213.451 134.834 214.632 133.674 216.014L132.626 215.41C133.785 214.029 135.163 212.848 136.705 211.915L166.092 194.988L167.14 195.592L137.76 212.52Z" fill="#E0E0E0"/>
<path d="M135.146 211.008C133.602 211.941 132.222 213.122 131.06 214.502L130.012 213.898C131.173 212.517 132.553 211.336 134.098 210.403L163.477 193.476L164.526 194.087L135.146 211.008Z" fill="#E0E0E0"/>
<path d="M132.565 209.543C131.021 210.476 129.641 211.656 128.48 213.037L127.431 212.426C128.593 211.047 129.973 209.869 131.517 208.938L160.897 192.011L161.952 192.615L132.565 209.543Z" fill="#E0E0E0"/>
<path d="M204.449 222.943L211.324 219.314L211.331 218.749L204.449 222.943Z" fill="#E6E6E6"/>
<path d="M211.331 221.337L199.866 227.741L211.331 220.92V221.337Z" fill="#E6E6E6"/>
<path opacity="0.02" d="M93.0854 220.792C99.2746 217.52 107.574 213.447 111.948 212.601C115.483 211.929 117.654 212.392 118.971 213.145L169.068 242.041C167.933 241.369 166.293 241.04 163.975 241.308C163.975 241.308 139.178 226.182 123.164 221.014C113.382 217.956 102.911 217.879 93.0854 220.792Z" fill="black"/>
<path d="M229.757 134.541C227.461 134.533 225.193 134.033 223.106 133.074C221.02 132.115 219.163 130.721 217.661 128.984C214.942 130.473 211.891 131.252 208.791 131.248C200.055 131.248 192.232 124.918 189.699 115.792C182.751 113.877 177.919 107.13 177.919 99.3082C177.919 90.1488 184.686 82.5821 193.052 82.2998C195.915 72.5558 204.1 66.0374 213.508 66.0374C218.224 66.0487 222.788 67.7132 226.404 70.7414C227.954 68.7276 229.961 67.112 232.259 66.0282C234.558 64.9444 237.081 64.4236 239.621 64.509C242.161 64.5944 244.644 65.2834 246.864 66.5191C249.084 67.7549 250.979 69.5017 252.39 71.615C254.394 70.8914 256.509 70.5208 258.639 70.5197C266.992 70.5197 274.499 76.2451 277.375 84.7795C284.417 86.5334 289.511 93.4752 289.511 101.385C289.511 110.121 283.309 117.513 275.339 118.326C272.093 126.511 264.741 131.766 256.523 131.766C251.707 131.739 247.072 129.924 243.519 126.672C242.072 129.035 240.052 130.994 237.646 132.37C235.241 133.745 232.527 134.492 229.757 134.541ZM217.762 128.117C217.817 128.117 217.871 128.129 217.921 128.153C217.971 128.176 218.015 128.209 218.051 128.251C219.481 129.969 221.271 131.354 223.293 132.308C225.315 133.262 227.521 133.763 229.757 133.775C235.133 133.775 240.159 130.838 243.157 125.913C243.187 125.865 243.227 125.825 243.275 125.794C243.322 125.764 243.376 125.745 243.432 125.738C243.489 125.729 243.547 125.733 243.602 125.751C243.657 125.768 243.707 125.798 243.748 125.839C247.201 129.146 251.789 131.006 256.57 131.04C264.519 131.04 271.649 125.859 274.714 117.842C274.741 117.775 274.786 117.717 274.844 117.674C274.902 117.632 274.971 117.606 275.043 117.6C282.731 116.928 288.759 109.838 288.759 101.398C288.759 93.7642 283.813 87.071 276.999 85.4851C276.934 85.473 276.874 85.4434 276.826 85.3995C276.777 85.3557 276.742 85.2992 276.723 85.2365C274.001 76.897 266.737 71.2992 258.646 71.2992C256.508 71.2977 254.388 71.6872 252.39 72.4483C252.31 72.4772 252.222 72.4791 252.141 72.4536C252.06 72.4281 251.989 72.3767 251.94 72.3072C250.602 70.2184 248.775 68.4872 246.617 67.2635C244.46 66.0398 242.036 65.3605 239.557 65.2843C237.077 65.2082 234.617 65.7376 232.388 66.8267C230.16 67.9157 228.23 69.5316 226.767 71.5344C226.736 71.5764 226.697 71.6113 226.651 71.6368C226.606 71.6623 226.556 71.6778 226.504 71.6822C226.453 71.6884 226.401 71.6838 226.351 71.6688C226.301 71.6538 226.255 71.6286 226.215 71.5949C222.693 68.5302 218.184 66.8385 213.515 66.8304C204.369 66.8304 196.412 73.248 193.718 82.8038C193.695 82.8826 193.647 82.9518 193.582 83.0014C193.516 83.051 193.437 83.0783 193.355 83.0794C185.291 83.2003 178.692 90.4714 178.692 99.335C178.692 106.895 183.396 113.393 190.116 115.14C190.181 115.156 190.242 115.19 190.29 115.237C190.339 115.284 190.374 115.344 190.391 115.409C192.77 124.286 200.343 130.489 208.804 130.489C211.868 130.484 214.879 129.683 217.54 128.164C217.607 128.125 217.685 128.109 217.762 128.117Z" fill="#6F604E"/>
<path d="M181.312 75.4589C180.543 75.4496 179.794 75.216 179.155 74.7869C178.875 74.9106 178.585 75.0117 178.288 75.0893C177.149 75.3812 175.949 75.3345 174.836 74.955C173.723 74.5755 172.744 73.8796 172.02 72.9525C171.296 72.0254 170.859 70.9073 170.76 69.7352C170.662 68.5631 170.908 67.3878 171.468 66.3533C170.867 65.7378 170.474 64.9507 170.341 64.1013C170.209 63.2519 170.344 62.3823 170.728 61.6133C171.112 60.8442 171.726 60.2138 172.485 59.8096C173.244 59.4054 174.109 59.2475 174.962 59.3577C175.356 58.1779 176.043 57.1175 176.96 56.2759C177.876 55.4343 178.99 54.8392 180.199 54.5464C181.408 54.2536 182.672 54.2726 183.872 54.6016C185.071 54.9307 186.168 55.5591 187.058 56.4278C187.165 56.3839 187.275 56.348 187.387 56.3203C187.867 56.1936 188.366 56.1627 188.857 56.2293C189.348 56.2959 189.822 56.4587 190.25 56.7083C190.678 56.958 191.053 57.2896 191.352 57.6843C191.652 58.079 191.871 58.5289 191.997 59.0083C192.155 59.6165 192.155 60.2549 191.997 60.863C192.899 60.9555 193.741 61.3555 194.382 61.9957C195.023 62.6359 195.424 63.4774 195.518 64.3786C195.612 65.2798 195.393 66.1858 194.897 66.9444C194.401 67.703 193.66 68.2678 192.797 68.544C192.698 69.4581 192.393 70.3377 191.903 71.116C191.413 71.8943 190.753 72.5506 189.972 73.0353C189.19 73.5199 188.309 73.82 187.394 73.9127C186.479 74.0055 185.555 73.8885 184.693 73.5705C184.164 74.4423 183.319 75.0757 182.334 75.3379C182 75.4246 181.657 75.4653 181.312 75.4589ZM179.196 74.0141C179.275 74.015 179.353 74.0408 179.417 74.088C179.795 74.3661 180.229 74.5579 180.689 74.6498C181.149 74.7418 181.624 74.7316 182.08 74.6201C182.535 74.5086 182.961 74.2984 183.326 74.0045C183.692 73.7105 183.989 73.3398 184.195 72.9187C184.237 72.8341 184.31 72.7689 184.399 72.7364C184.488 72.7039 184.586 72.7066 184.672 72.744C185.452 73.0838 186.302 73.2306 187.15 73.172C187.999 73.1134 188.82 72.8511 189.546 72.4072C190.271 71.9634 190.879 71.3512 191.317 70.6226C191.756 69.8939 192.012 69.0702 192.064 68.2214C192.068 68.1423 192.096 68.0663 192.146 68.0046C192.195 67.9429 192.263 67.8988 192.34 67.8787L192.501 68.2281L192.407 67.8653C193.228 67.646 193.928 67.1108 194.355 66.3766C194.782 65.6424 194.901 64.769 194.685 63.9475C194.494 63.2574 194.08 62.6498 193.507 62.2196C192.935 61.7893 192.236 61.5604 191.52 61.5686C191.458 61.5769 191.395 61.5659 191.34 61.537C191.285 61.5081 191.24 61.4628 191.211 61.4073C191.176 61.3584 191.153 61.3016 191.145 61.2418C191.137 61.1821 191.143 61.1213 191.164 61.0646C191.402 60.4682 191.442 59.8108 191.278 59.1897C191.176 58.8049 190.999 58.444 190.757 58.1276C190.515 57.8112 190.214 57.5456 189.869 57.3459C189.525 57.1462 189.144 57.0163 188.749 56.9637C188.355 56.9111 187.954 56.9368 187.569 57.0393C187.413 57.082 187.26 57.1359 187.112 57.2006C187.043 57.2326 186.965 57.242 186.89 57.2276C186.816 57.2131 186.747 57.1755 186.695 57.12C185.891 56.279 184.879 55.6655 183.761 55.3414C182.643 55.0174 181.46 54.9944 180.33 55.2747C179.201 55.555 178.165 56.1287 177.329 56.9378C176.493 57.7468 175.885 58.7624 175.567 59.8819C175.542 59.9733 175.482 60.0514 175.401 60.1002C175.319 60.149 175.223 60.1647 175.13 60.144C174.395 59.983 173.627 60.0709 172.947 60.394C172.267 60.7171 171.714 61.2571 171.375 61.9289C171.036 62.6007 170.929 63.3662 171.072 64.1051C171.216 64.844 171.601 65.5143 172.167 66.0105C172.233 66.0669 172.278 66.1455 172.291 66.2319C172.305 66.3184 172.287 66.4068 172.24 66.4809C171.677 67.3808 171.398 68.4294 171.438 69.4903C171.479 70.5512 171.838 71.5752 172.469 72.4292C173.1 73.2832 173.973 73.9276 174.975 74.2786C175.977 74.6296 177.061 74.6709 178.087 74.3971C178.408 74.312 178.721 74.1973 179.021 74.0544C179.075 74.0263 179.135 74.0124 179.196 74.0141Z" fill="#6F604E"/>
<path d="M161.435 60.1776C160.775 60.1783 160.125 60.0109 159.548 59.6911C158.971 59.3713 158.485 58.9097 158.135 58.3498C157.504 58.1755 156.935 57.8261 156.494 57.342C156.053 56.8579 155.758 56.2588 155.644 55.6141C155.529 54.9694 155.6 54.3055 155.847 53.6991C156.094 53.0927 156.507 52.5686 157.04 52.1875C157.004 51.5732 157.132 50.9603 157.411 50.4118C157.69 49.8634 158.11 49.3991 158.628 49.0666C159.146 48.7341 159.743 48.5455 160.358 48.52C160.973 48.4945 161.583 48.6331 162.127 48.9216C162.349 48.7079 162.598 48.5228 162.866 48.3706C163.483 48.0332 164.188 47.8924 164.886 47.967C165.585 48.0416 166.245 48.328 166.776 48.7878C167.308 49.2477 167.686 49.8591 167.86 50.54C168.035 51.2208 167.997 51.9387 167.751 52.5974C167.823 52.6964 167.888 52.7996 167.946 52.9066C168.236 53.4343 168.382 54.0283 168.373 54.6301C168.363 55.2319 168.196 55.8207 167.89 56.3387C167.583 56.8567 167.147 57.286 166.625 57.5844C166.102 57.8828 165.511 58.0401 164.909 58.0406C164.588 58.6819 164.095 59.2212 163.485 59.5986C162.875 59.9759 162.172 60.1764 161.455 60.1776H161.435ZM160.501 49.2576C160.115 49.2613 159.735 49.3464 159.385 49.5073C159.035 49.6682 158.723 49.9012 158.469 50.1912C158.215 50.4811 158.025 50.8214 157.912 51.1898C157.799 51.5581 157.765 51.9462 157.813 52.3286C157.823 52.3997 157.813 52.4724 157.781 52.5371C157.75 52.6019 157.7 52.6557 157.638 52.6915C157.177 52.9755 156.811 53.3904 156.588 53.8832C156.364 54.3761 156.292 54.9244 156.382 55.4582C156.471 55.9921 156.718 56.4871 157.09 56.88C157.462 57.273 157.943 57.5461 158.471 57.6643C158.522 57.6754 158.57 57.6973 158.612 57.7286C158.654 57.76 158.688 57.7999 158.713 57.8458C159.12 58.5615 159.792 59.0887 160.584 59.3137C161.376 59.5387 162.224 59.4435 162.947 59.0486C163.555 58.7045 164.029 58.1644 164.291 57.5165C164.322 57.4443 164.375 57.3837 164.443 57.3428C164.51 57.3019 164.588 57.2828 164.667 57.288C165.199 57.3281 165.731 57.2137 166.199 56.9587C166.829 56.6086 167.296 56.024 167.497 55.3319C167.698 54.6398 167.618 53.8962 167.274 53.2627C167.197 53.13 167.112 53.0021 167.019 52.8797C166.976 52.8267 166.949 52.7627 166.94 52.6949C166.932 52.6272 166.943 52.5584 166.972 52.4966C167.143 52.1154 167.223 51.6995 167.206 51.2818C167.188 50.8642 167.074 50.4564 166.871 50.0909C166.663 49.7063 166.364 49.3784 166 49.1355C165.637 48.8927 165.219 48.7422 164.784 48.6972C164.349 48.6522 163.91 48.714 163.504 48.8772C163.098 49.0404 162.739 49.3002 162.456 49.6339C162.398 49.7033 162.317 49.7487 162.227 49.7611C162.138 49.7735 162.047 49.7522 161.972 49.7011C161.533 49.419 161.023 49.2654 160.501 49.2576Z" fill="#6F604E"/>
<path d="M146.738 57.4627H146.57C146.052 57.4203 145.571 57.1795 145.226 56.7907C145.047 56.5811 144.913 56.3369 144.832 56.0734C144.751 55.8099 144.725 55.5325 144.756 55.2586L144.675 55.1712C144.502 54.9688 144.37 54.7341 144.288 54.4805C144.206 54.227 144.175 53.9597 144.197 53.6941C144.219 53.4285 144.293 53.1699 144.415 52.9332C144.538 52.6965 144.706 52.4865 144.91 52.3152C145.143 52.1154 145.419 51.9727 145.717 51.8986C145.842 51.5008 146.075 51.1451 146.389 50.8704C146.818 50.5059 147.368 50.316 147.931 50.3384C148.493 50.3608 149.027 50.5939 149.426 50.9914C149.944 51.0338 150.425 51.2745 150.77 51.6634C151.082 52.0285 151.254 52.4932 151.254 52.9738C151.254 53.4543 151.082 53.919 150.77 54.2842C150.849 54.6434 150.828 55.0175 150.71 55.3657C150.591 55.714 150.38 56.0232 150.098 56.2598C149.858 56.465 149.573 56.6108 149.266 56.6855C148.959 56.7602 148.638 56.7617 148.331 56.6899C148.245 56.8005 148.148 56.9018 148.042 56.9923C147.676 57.2983 147.214 57.4649 146.738 57.4627ZM147.84 51.072C147.485 51.0707 147.142 51.1972 146.872 51.4282C146.612 51.6469 146.434 51.948 146.368 52.2816C146.355 52.3587 146.318 52.4295 146.26 52.4829C146.203 52.5363 146.13 52.5695 146.053 52.5773C145.805 52.6116 145.573 52.7139 145.381 52.873C145.122 53.0942 144.963 53.4087 144.936 53.7476C144.91 54.0865 145.019 54.4221 145.239 54.6806C145.283 54.7369 145.333 54.7887 145.387 54.8352C145.439 54.8786 145.478 54.9352 145.501 54.9991C145.523 55.063 145.528 55.1317 145.515 55.1981C145.47 55.39 145.471 55.5897 145.518 55.7812C145.565 55.9726 145.656 56.1504 145.784 56.3002C146.003 56.5568 146.314 56.7164 146.65 56.7441C146.987 56.7718 147.32 56.6654 147.578 56.448C147.694 56.3467 147.792 56.2262 147.867 56.0918C147.909 56.0123 147.979 55.9514 148.064 55.9215C148.149 55.8916 148.241 55.8948 148.324 55.9306C148.541 56.0141 148.776 56.0382 149.005 56.0004C149.234 55.9626 149.449 55.8643 149.628 55.7155C149.825 55.5482 149.967 55.3253 150.035 55.0759C150.104 54.8265 150.095 54.5622 150.011 54.3178C149.988 54.25 149.985 54.1771 150.003 54.1079C150.021 54.0388 150.059 53.9763 150.111 53.928C150.295 53.7529 150.422 53.5274 150.477 53.28C150.532 53.0326 150.513 52.7744 150.422 52.538C150.331 52.3015 150.171 52.0974 149.964 51.9513C149.757 51.8052 149.511 51.7237 149.258 51.7171C149.153 51.7114 149.055 51.6657 148.982 51.5894C148.841 51.4254 148.666 51.2942 148.468 51.2048C148.271 51.1155 148.057 51.0702 147.84 51.072Z" fill="#6F604E"/>
</svg>
