<svg width="368" height="368" viewBox="0 0 368 368" fill="none" xmlns="http://www.w3.org/2000/svg">
<path d="M368 281.446H0V281.63H368V281.446Z" fill="#EBEBEB"/>
<path d="M331.126 293.289H290.477V293.473H331.126V293.289Z" fill="#EBEBEB"/>
<path d="M243.248 289.432H236.852V289.616H243.248V289.432Z" fill="#EBEBEB"/>
<path d="M288.262 286.459H274.138V286.643H288.262V286.459Z" fill="#EBEBEB"/>
<path d="M70.3984 287.695H38.6106V287.879H70.3984V287.695Z" fill="#EBEBEB"/>
<path d="M192.133 292.45H158.483V292.634H192.133V292.45Z" fill="#EBEBEB"/>
<path d="M172.327 289.336H103.379V289.52H172.327V289.336Z" fill="#EBEBEB"/>
<path d="M178.642 244.418C178.642 244.971 178.533 245.518 178.321 246.028C178.11 246.539 177.799 247.002 177.408 247.393C177.017 247.783 176.553 248.092 176.043 248.303C175.532 248.514 174.985 248.622 174.432 248.621H32.3178C31.2044 248.619 30.1374 248.175 29.3509 247.387C28.5643 246.599 28.1226 245.532 28.1226 244.418V44.6457C28.1323 43.5388 28.5783 42.4804 29.3638 41.7004C30.1493 40.9204 31.2108 40.4819 32.3178 40.48H174.432C175.547 40.48 176.616 40.9227 177.404 41.7109C178.192 42.499 178.635 43.568 178.635 44.6825M178.451 44.6825C178.454 44.152 178.353 43.6259 178.153 43.1345C177.953 42.6432 177.658 42.1962 177.284 41.8193C176.911 41.4425 176.467 41.1431 175.977 40.9385C175.488 40.734 174.963 40.6281 174.432 40.6272H32.3178C31.2532 40.6291 30.233 41.0534 29.481 41.8068C28.7289 42.5602 28.3066 43.5812 28.3066 44.6457V244.418C28.3066 245.483 28.7289 246.504 29.481 247.257C30.233 248.011 31.2532 248.435 32.3178 248.437H174.432C175.497 248.435 176.518 248.011 177.271 247.258C178.025 246.504 178.449 245.483 178.451 244.418" fill="#EBEBEB"/>
<path d="M333.636 248.621H191.515C190.401 248.619 189.333 248.175 188.545 247.388C187.757 246.6 187.314 245.532 187.312 244.418V44.6457C187.324 43.5381 187.771 42.4797 188.558 41.7C189.345 40.9202 190.407 40.4819 191.515 40.48H333.636C334.742 40.4838 335.802 40.9232 336.585 41.703C337.369 42.4828 337.814 43.5401 337.824 44.6457V244.418C337.824 245.53 337.383 246.597 336.598 247.385C335.813 248.172 334.748 248.617 333.636 248.621ZM191.515 40.6272C190.449 40.6291 189.428 41.0531 188.675 41.8063C187.922 42.5595 187.498 43.5805 187.496 44.6457V244.418C187.498 245.483 187.922 246.504 188.675 247.258C189.428 248.011 190.449 248.435 191.515 248.437H333.636C334.701 248.435 335.722 248.011 336.476 247.258C337.229 246.504 337.653 245.483 337.655 244.418V44.6457C337.653 43.5805 337.229 42.5595 336.476 41.8063C335.722 41.0531 334.701 40.6291 333.636 40.6272H191.515Z" fill="#EBEBEB"/>
<path d="M249.879 91.8528H201.046V148.473H249.879V91.8528Z" fill="#E6E6E6"/>
<path d="M253.287 91.8528H201.782V148.473H253.287V91.8528Z" fill="#F0F0F0"/>
<path d="M248.974 144.168V96.1731H206.102V144.168H248.974Z" fill="white"/>
<path d="M237.964 131.008H226.835C224.143 131.004 221.563 129.932 219.66 128.028C217.757 126.124 216.688 123.543 216.686 120.851V109.73C216.686 109.621 216.729 109.516 216.806 109.439C216.884 109.361 216.989 109.318 217.098 109.318H228.226C230.919 109.32 233.502 110.391 235.406 112.295C237.31 114.199 238.381 116.782 238.383 119.475V130.603C238.382 130.657 238.37 130.711 238.349 130.76C238.327 130.81 238.296 130.855 238.257 130.892C238.218 130.93 238.172 130.96 238.122 130.979C238.071 130.999 238.018 131.009 237.964 131.008ZM217.51 110.142V120.851C217.514 123.323 218.498 125.693 220.246 127.441C221.994 129.189 224.363 130.172 226.835 130.176H237.551V119.475C237.549 117.002 236.566 114.632 234.818 112.883C233.07 111.135 230.699 110.152 228.226 110.15L217.51 110.142Z" fill="#F0F0F0"/>
<path d="M320.44 113.138H264.526L269.479 72.1133H315.486L320.44 113.138Z" fill="#EBEBEB"/>
<path d="M273.785 113.131H272.887V128.844H273.785V113.131Z" fill="#E0E0E0"/>
<path d="M273.336 129.919C273.929 129.919 274.41 129.438 274.41 128.844C274.41 128.251 273.929 127.77 273.336 127.77C272.742 127.77 272.261 128.251 272.261 128.844C272.261 129.438 272.742 129.919 273.336 129.919Z" fill="#E0E0E0"/>
<path d="M308.171 113.138H298.558L296.52 72.1133H305.388L308.171 113.138Z" fill="#F5F5F5"/>
<path d="M295.283 113.131H289.69V281.439H295.283V113.131Z" fill="#F0F0F0"/>
<path d="M301.333 281.446H283.632C283.632 280.446 284.029 279.487 284.736 278.779C285.442 278.071 286.401 277.673 287.401 277.671H297.565C298.565 277.673 299.523 278.071 300.23 278.779C300.936 279.487 301.333 280.446 301.333 281.446Z" fill="#F0F0F0"/>
<path d="M295.283 113.131H289.69V116.546H295.283V113.131Z" fill="#E0E0E0"/>
<path d="M285.995 201.907C285.546 201.907 285.097 201.907 284.641 201.951C281.806 202.148 279.049 202.971 276.57 204.36C274.091 205.75 271.95 207.671 270.302 209.986C268.654 212.302 267.539 214.953 267.038 217.751C266.537 220.548 266.662 223.422 267.404 226.165C269.503 234.356 270.518 242.786 270.421 251.241V275.867C270.42 276.292 270.503 276.713 270.665 277.105C270.827 277.498 271.065 277.854 271.365 278.154C271.666 278.455 272.022 278.693 272.415 278.855C272.807 279.017 273.228 279.099 273.652 279.099H326.644V201.907H285.995Z" fill="#F0F0F0"/>
<path d="M345.92 221.153C345.919 218.412 345.333 215.702 344.201 213.205C343.068 210.709 341.416 208.483 339.354 206.676C337.291 204.87 334.867 203.524 332.243 202.73C329.619 201.936 326.856 201.712 324.138 202.071C321.421 202.431 318.811 203.368 316.484 204.817C314.158 206.267 312.167 208.197 310.646 210.478C309.126 212.759 308.11 215.339 307.666 218.044C307.223 220.749 307.362 223.518 308.075 226.165C310.174 234.356 311.189 242.786 311.092 251.241V275.868C311.092 276.292 311.174 276.713 311.336 277.105C311.498 277.498 311.736 277.854 312.037 278.154C312.337 278.455 312.693 278.693 313.086 278.855C313.478 279.017 313.899 279.1 314.324 279.099H339.009C339.866 279.099 340.688 278.758 341.294 278.152C341.9 277.546 342.24 276.724 342.24 275.868V249.798C342.156 241.868 343.146 233.963 345.184 226.298C345.662 224.624 345.91 222.894 345.92 221.153Z" fill="#F5F5F5"/>
<path d="M316.892 232.23H229.117V279.099H316.892V232.23Z" fill="#F0F0F0"/>
<path d="M261.898 170.826H197.13C195.264 170.792 193.411 171.156 191.696 171.893C189.981 172.63 188.442 173.724 187.182 175.102C185.922 176.479 184.97 178.109 184.388 179.883C183.806 181.657 183.609 183.535 183.809 185.391L188.74 242.799H282.624L277.693 185.391C277.296 181.452 275.47 177.795 272.559 175.111C269.649 172.427 265.856 170.903 261.898 170.826Z" fill="#E0E0E0"/>
<path d="M280.946 170.826H214.779C213.002 170.791 211.237 171.136 209.603 171.837C207.969 172.538 206.503 173.579 205.303 174.891C204.103 176.203 203.197 177.756 202.644 179.446C202.092 181.136 201.905 182.924 202.098 184.692L207.096 242.836H301.024L296.026 184.692C295.651 180.933 293.908 177.443 291.127 174.887C288.346 172.33 284.723 170.885 280.946 170.826Z" fill="#F5F5F5"/>
<path d="M230.559 227.954H315.405C316.684 227.954 317.91 228.462 318.814 229.366C319.718 230.27 320.226 231.496 320.226 232.775V242.218C320.226 243.496 319.718 244.722 318.814 245.626C317.91 246.53 316.684 247.038 315.405 247.038H230.559C230.169 247.038 229.795 246.883 229.519 246.607C229.242 246.331 229.087 245.957 229.087 245.566V229.374C229.101 228.993 229.262 228.632 229.536 228.367C229.811 228.102 230.178 227.954 230.559 227.954Z" fill="#E0E0E0"/>
<path d="M181.829 201.907C181.377 201.907 180.928 201.922 180.482 201.951C177.648 202.151 174.893 202.976 172.415 204.366C169.937 205.756 167.797 207.677 166.149 209.991C164.501 212.306 163.385 214.956 162.882 217.752C162.378 220.549 162.5 223.422 163.237 226.165C165.341 234.355 166.355 242.786 166.255 251.241V275.868C166.255 276.724 166.596 277.546 167.201 278.152C167.807 278.758 168.629 279.099 169.486 279.099H222.478V201.907H181.829Z" fill="#F0F0F0"/>
<path d="M241.732 221.153C241.723 218.417 241.131 215.713 239.996 213.223C238.86 210.733 237.206 208.514 235.145 206.714C233.084 204.913 230.663 203.573 228.043 202.782C225.423 201.991 222.664 201.768 219.951 202.127C217.238 202.486 214.633 203.419 212.309 204.865C209.985 206.31 207.996 208.234 206.475 210.509C204.953 212.784 203.934 215.357 203.485 218.057C203.036 220.756 203.168 223.521 203.872 226.165C205.975 234.355 206.99 242.786 206.89 251.241V275.868C206.89 276.292 206.973 276.713 207.136 277.106C207.299 277.498 207.538 277.855 207.839 278.155C208.139 278.455 208.496 278.693 208.889 278.855C209.282 279.017 209.703 279.1 210.128 279.099H234.806C235.231 279.1 235.651 279.017 236.044 278.855C236.436 278.693 236.793 278.455 237.093 278.154C237.393 277.854 237.631 277.498 237.793 277.105C237.955 276.713 238.038 276.292 238.037 275.868V249.798C237.968 241.866 238.973 233.961 241.025 226.298C241.49 224.622 241.728 222.892 241.732 221.153Z" fill="#F5F5F5"/>
<path d="M316.877 281.446H183.205C182.582 281.446 181.985 281.199 181.545 280.759C181.105 280.318 180.857 279.721 180.857 279.099H319.225C319.225 279.721 318.978 280.318 318.538 280.759C318.097 281.199 317.5 281.446 316.877 281.446Z" fill="#E0E0E0"/>
<path d="M50.0701 66.1149H33.937V281.446H50.0701V66.1149Z" fill="#E6E6E6"/>
<path d="M50.0626 281.446H191.647L191.647 66.1148L50.0626 66.1148L50.0626 281.446Z" fill="#F5F5F5"/>
<path d="M189.005 281.446V69.287L52.7123 69.287V281.446H189.005Z" fill="#E6E6E6"/>
<path d="M64.1204 281.446L64.1204 69.287H52.7124L52.7124 281.446H64.1204Z" fill="#E0E0E0"/>
<path d="M190.44 243.623V240.459H52.7123V243.623H190.44Z" fill="#F5F5F5"/>
<path d="M190.44 199.169V196.004H52.7122V199.169H190.44Z" fill="#F5F5F5"/>
<path d="M190.44 154.722V151.55H52.7122V154.722H190.44Z" fill="#F5F5F5"/>
<path d="M190.44 110.26V107.095L52.7122 107.095V110.26L190.44 110.26Z" fill="#F5F5F5"/>
<path d="M64.8564 107.103H85.3392V76.9046H64.8564V107.103Z" fill="#FAFAFA"/>
<path d="M87.5177 76.8973H83.5875C82.9696 76.8973 82.4688 77.3981 82.4688 78.016V105.977C82.4688 106.594 82.9696 107.095 83.5875 107.095H87.5177C88.1356 107.095 88.6364 106.594 88.6364 105.977V78.016C88.6364 77.3981 88.1356 76.8973 87.5177 76.8973Z" fill="#F0F0F0"/>
<path d="M57.9527 107.103H78.4355V76.9046H57.9527V107.103Z" fill="#FAFAFA"/>
<path d="M80.6288 76.8973H76.6986C76.0807 76.8973 75.5798 77.3981 75.5798 78.016V105.977C75.5798 106.594 76.0807 107.095 76.6986 107.095H80.6288C81.2466 107.095 81.7475 106.594 81.7475 105.977V78.016C81.7475 77.3981 81.2466 76.8973 80.6288 76.8973Z" fill="#E6E6E6"/>
<path d="M52.7123 76.8973H70.391L68.9852 107.103H52.7123V76.8973Z" fill="#FAFAFA"/>
<path d="M72.6726 76.8973H68.5436C68.2431 76.927 67.965 77.0696 67.7656 77.2964C67.5661 77.5232 67.4602 77.8172 67.4691 78.119L66.1737 105.881C66.1542 106.025 66.1639 106.171 66.2022 106.311C66.2405 106.451 66.3066 106.582 66.3965 106.696C66.4865 106.81 66.5985 106.905 66.7259 106.975C66.8533 107.045 66.9934 107.088 67.1379 107.103H71.2669C71.5661 107.07 71.8421 106.926 72.0409 106.7C72.2397 106.474 72.3469 106.182 72.3414 105.881L73.6368 78.119C73.6573 77.975 73.6484 77.8282 73.6106 77.6877C73.5727 77.5472 73.5067 77.4158 73.4165 77.3015C73.3264 77.1873 73.2139 77.0925 73.0861 77.023C72.9582 76.9536 72.8175 76.9108 72.6726 76.8973Z" fill="#F0F0F0"/>
<path d="M159.58 107.095H175.109V81.6003H159.58V107.095Z" fill="#FAFAFA"/>
<path d="M176.721 81.6077H173.829C173.337 81.6077 172.938 82.0064 172.938 82.4982V106.212C172.938 106.704 173.337 107.103 173.829 107.103H176.721C177.213 107.103 177.612 106.704 177.612 106.212V82.4982C177.612 82.0064 177.213 81.6077 176.721 81.6077Z" fill="#F0F0F0"/>
<path d="M154.347 107.095H169.876V81.6003H154.347V107.095Z" fill="#FAFAFA"/>
<path d="M171.495 81.6077H168.603C168.111 81.6077 167.712 82.0064 167.712 82.4982V106.212C167.712 106.704 168.111 107.103 168.603 107.103H171.495C171.987 107.103 172.386 106.704 172.386 106.212V82.4982C172.386 82.0064 171.987 81.6077 171.495 81.6077Z" fill="#E6E6E6"/>
<path d="M150.372 81.6077H163.775L162.708 107.103H150.372V81.6077Z" fill="#FAFAFA"/>
<path d="M165.504 81.6077H162.376C161.949 81.6077 161.589 82.0713 161.559 82.6381L160.58 106.072C160.58 106.639 160.882 107.103 161.316 107.103H164.452C164.879 107.103 165.239 106.639 165.261 106.072L166.248 82.6381C166.262 82.0713 165.931 81.6077 165.504 81.6077Z" fill="#F0F0F0"/>
<path d="M139.553 107.095H155.083V81.6003H139.553V107.095Z" fill="#FAFAFA"/>
<path d="M156.694 81.6077H153.802C153.31 81.6077 152.911 82.0064 152.911 82.4982V106.212C152.911 106.704 153.31 107.103 153.802 107.103H156.694C157.186 107.103 157.585 106.704 157.585 106.212V82.4982C157.585 82.0064 157.186 81.6077 156.694 81.6077Z" fill="#F0F0F0"/>
<path d="M134.327 107.095H149.857V81.6003H134.327V107.095Z" fill="#FAFAFA"/>
<path d="M151.469 81.6077H148.576C148.085 81.6077 147.686 82.0064 147.686 82.4982V106.212C147.686 106.704 148.085 107.103 148.576 107.103H151.469C151.961 107.103 152.359 106.704 152.359 106.212V82.4982C152.359 82.0064 151.961 81.6077 151.469 81.6077Z" fill="#E6E6E6"/>
<path d="M130.353 81.6077H143.748L142.688 107.103H130.353V81.6077Z" fill="#FAFAFA"/>
<path d="M145.485 81.6077H142.35C141.923 81.6077 141.562 82.0713 141.54 82.6381L140.576 106.072C140.576 106.639 140.885 107.103 141.312 107.103H144.44C144.867 107.103 145.228 106.639 145.257 106.072L146.236 82.6381C146.236 82.0713 145.912 81.6077 145.485 81.6077Z" fill="#F0F0F0"/>
<path d="M110.297 107.103H121.124V79.7014H110.297V107.103Z" fill="#FAFAFA"/>
<path d="M122.102 79.694H120.388C119.961 79.694 119.615 80.04 119.615 80.4668V106.323C119.615 106.749 119.961 107.095 120.388 107.095H122.102C122.529 107.095 122.875 106.749 122.875 106.323V80.4668C122.875 80.04 122.529 79.694 122.102 79.694Z" fill="#F0F0F0"/>
<path d="M101.281 107.103H113.212V76.9046H101.281V107.103Z" fill="#FAFAFA"/>
<path d="M114.286 76.8973H112.402C111.93 76.8973 111.548 77.2795 111.548 77.751V106.242C111.548 106.713 111.93 107.095 112.402 107.095H114.286C114.758 107.095 115.14 106.713 115.14 106.242V77.751C115.14 77.2795 114.758 76.8973 114.286 76.8973Z" fill="#F5F5F5"/>
<path d="M98.2266 76.8973H108.523L107.706 107.103H98.2266V76.8973Z" fill="#FAFAFA"/>
<path d="M109.855 76.8973H107.456C107.132 76.8973 106.845 77.4419 106.83 78.119L106.094 105.881C106.094 106.551 106.323 107.103 106.654 107.103H109.06C109.384 107.103 109.664 106.551 109.686 105.881L110.422 78.119C110.4 77.4419 110.179 76.8973 109.855 76.8973Z" fill="#F0F0F0"/>
<path d="M119.387 151.557H139.869V121.359H119.387V151.557Z" fill="#FAFAFA"/>
<path d="M142.055 121.352H138.125C137.507 121.352 137.006 121.853 137.006 122.47V150.431C137.006 151.049 137.507 151.55 138.125 151.55H142.055C142.673 151.55 143.174 151.049 143.174 150.431V122.47C143.174 121.853 142.673 121.352 142.055 121.352Z" fill="#F0F0F0"/>
<path d="M112.498 151.557H132.98V121.359H112.498V151.557Z" fill="#FAFAFA"/>
<path d="M135.159 121.352H131.229C130.611 121.352 130.11 121.853 130.11 122.47V150.431C130.11 151.049 130.611 151.55 131.229 151.55H135.159C135.777 151.55 136.278 151.049 136.278 150.431V122.47C136.278 121.853 135.777 121.352 135.159 121.352Z" fill="#E6E6E6"/>
<path d="M107.25 121.352H124.921L123.515 151.557H107.25V121.352Z" fill="#FAFAFA"/>
<path d="M127.21 121.352H123.081C122.781 121.381 122.503 121.524 122.303 121.751C122.104 121.978 121.998 122.272 122.007 122.573L120.704 150.335C120.683 150.479 120.692 150.626 120.73 150.767C120.768 150.907 120.834 151.039 120.924 151.153C121.014 151.267 121.127 151.362 121.255 151.431C121.383 151.501 121.523 151.544 121.668 151.557H125.797C126.096 151.524 126.372 151.381 126.571 151.154C126.77 150.928 126.877 150.636 126.872 150.335L128.16 122.573C128.181 122.43 128.174 122.284 128.137 122.144C128.101 122.004 128.036 121.873 127.947 121.759C127.858 121.644 127.747 121.549 127.621 121.479C127.494 121.409 127.354 121.366 127.21 121.352Z" fill="#F0F0F0"/>
<path d="M150.784 151.55H163.333V126.055H150.784V151.55Z" fill="#FAFAFA"/>
<path d="M164.555 126.062H162.384C161.941 126.062 161.581 126.421 161.581 126.864V150.755C161.581 151.198 161.941 151.557 162.384 151.557H164.555C164.998 151.557 165.357 151.198 165.357 150.755V126.864C165.357 126.421 164.998 126.062 164.555 126.062Z" fill="#F0F0F0"/>
<path d="M146.56 151.55H159.109V126.055H146.56V151.55Z" fill="#FAFAFA"/>
<path d="M160.33 126.062H158.159C157.716 126.062 157.357 126.421 157.357 126.864V150.755C157.357 151.198 157.716 151.557 158.159 151.557H160.33C160.773 151.557 161.132 151.198 161.132 150.755V126.864C161.132 126.421 160.773 126.062 160.33 126.062Z" fill="#E6E6E6"/>
<path d="M143.343 126.062H154.177L153.316 151.557H143.343V126.062Z" fill="#FAFAFA"/>
<path d="M155.576 126.062H153.044C152.698 126.062 152.403 126.526 152.389 127.092L151.616 150.527C151.616 151.093 151.859 151.557 152.205 151.557H154.737C155.083 151.557 155.377 151.093 155.392 150.527L156.187 127.092C156.187 126.526 155.922 126.062 155.576 126.062Z" fill="#F0F0F0"/>
<path d="M171.724 151.557H182.116V130.441H171.724V151.557Z" fill="#FAFAFA"/>
<path d="M183.124 130.434H181.321C180.955 130.434 180.659 130.73 180.659 131.096V150.887C180.659 151.253 180.955 151.55 181.321 151.55H183.124C183.49 151.55 183.787 151.253 183.787 150.887V131.096C183.787 130.73 183.49 130.434 183.124 130.434Z" fill="#F0F0F0"/>
<path d="M168.22 151.557H178.613V130.441H168.22V151.557Z" fill="#FAFAFA"/>
<path d="M179.628 130.434H177.825C177.459 130.434 177.163 130.73 177.163 131.096V150.887C177.163 151.253 177.459 151.55 177.825 151.55H179.628C179.994 151.55 180.291 151.253 180.291 150.887V131.096C180.291 130.73 179.994 130.434 179.628 130.434Z" fill="#E6E6E6"/>
<path d="M165.556 130.434H174.528L173.814 151.557H165.556V130.434Z" fill="#FAFAFA"/>
<path d="M175.691 130.434H173.593C173.306 130.434 173.063 130.817 173.048 131.288L172.393 150.703C172.393 151.174 172.592 151.557 172.879 151.557H174.977C175.256 151.557 175.507 151.174 175.521 150.703L176.176 131.288C176.191 130.817 175.97 130.434 175.691 130.434Z" fill="#F0F0F0"/>
<path d="M86.5536 151.55H102.083V126.055H86.5536V151.55Z" fill="#FAFAFA"/>
<path d="M103.702 126.062H100.81C100.318 126.062 99.9193 126.461 99.9193 126.953V150.667C99.9193 151.158 100.318 151.557 100.81 151.557H103.702C104.194 151.557 104.593 151.158 104.593 150.667V126.953C104.593 126.461 104.194 126.062 103.702 126.062Z" fill="#F0F0F0"/>
<path d="M81.3354 151.55H96.865V126.055H81.3354V151.55Z" fill="#FAFAFA"/>
<path d="M98.4694 126.062H95.577C95.0851 126.062 94.6864 126.461 94.6864 126.953V150.667C94.6864 151.158 95.0851 151.557 95.577 151.557H98.4694C98.9613 151.557 99.36 151.158 99.36 150.667V126.953C99.36 126.461 98.9613 126.062 98.4694 126.062Z" fill="#E6E6E6"/>
<path d="M77.3536 126.062H90.7562L89.689 151.557H77.3536V126.062Z" fill="#FAFAFA"/>
<path d="M92.4857 126.062H89.3577C89.118 126.102 88.9015 126.229 88.7505 126.42C88.5995 126.61 88.5247 126.85 88.5408 127.092L87.584 150.527C87.584 151.093 87.8857 151.557 88.32 151.557H91.448C91.6878 151.517 91.9042 151.39 92.0552 151.2C92.2062 151.009 92.281 150.769 92.2649 150.527L93.2438 127.092C93.2438 126.526 92.9126 126.062 92.4857 126.062Z" fill="#F0F0F0"/>
<path d="M64.7827 151.557H75.6093V124.156H64.7827V151.557Z" fill="#FAFAFA"/>
<path d="M76.5808 124.148H74.8659C74.4391 124.148 74.0931 124.494 74.0931 124.921V150.777C74.0931 151.204 74.4391 151.55 74.8659 151.55H76.5808C77.0076 151.55 77.3536 151.204 77.3536 150.777V124.921C77.3536 124.494 77.0076 124.148 76.5808 124.148Z" fill="#F0F0F0"/>
<path d="M55.7667 151.557H67.6973V121.359H55.7667V151.557Z" fill="#FAFAFA"/>
<path d="M68.7645 121.352H66.8804C66.4089 121.352 66.0266 121.734 66.0266 122.205V150.696C66.0266 151.167 66.4089 151.55 66.8804 151.55H68.7645C69.2361 151.55 69.6183 151.167 69.6183 150.696V122.205C69.6183 121.734 69.2361 121.352 68.7645 121.352Z" fill="#F5F5F5"/>
<path d="M52.7123 121.352H63.0089L62.192 151.557H52.7123V121.352Z" fill="#FAFAFA"/>
<path d="M64.3411 121.352H61.9344C61.6032 121.352 61.3235 121.896 61.3088 122.573L60.5728 150.335C60.5728 151.005 60.8083 151.557 61.1395 151.557H63.5168C63.848 151.557 64.1276 151.005 64.1424 150.335L64.8784 122.573C64.9152 121.896 64.6649 121.352 64.3411 121.352Z" fill="#F0F0F0"/>
<path d="M64.8564 196.012H85.3392V165.813H64.8564V196.012Z" fill="#FAFAFA"/>
<path d="M87.5177 165.806H83.5875C82.9696 165.806 82.4688 166.307 82.4688 166.925V194.885C82.4688 195.503 82.9696 196.004 83.5875 196.004H87.5177C88.1356 196.004 88.6364 195.503 88.6364 194.885V166.925C88.6364 166.307 88.1356 165.806 87.5177 165.806Z" fill="#F0F0F0"/>
<path d="M57.9527 196.012H78.4355V165.813H57.9527V196.012Z" fill="#FAFAFA"/>
<path d="M80.6288 165.806H76.6986C76.0807 165.806 75.5798 166.307 75.5798 166.925V194.885C75.5798 195.503 76.0807 196.004 76.6986 196.004H80.6288C81.2466 196.004 81.7475 195.503 81.7475 194.885V166.925C81.7475 166.307 81.2466 165.806 80.6288 165.806Z" fill="#E6E6E6"/>
<path d="M52.7123 165.806H70.391L68.9852 196.011H52.7123V165.806Z" fill="#FAFAFA"/>
<path d="M72.6726 165.806H68.5436C68.2431 165.836 67.965 165.978 67.7656 166.205C67.5661 166.432 67.4602 166.726 67.4691 167.028L66.1737 194.79C66.1542 194.934 66.1639 195.08 66.2022 195.22C66.2405 195.36 66.3066 195.491 66.3965 195.605C66.4865 195.719 66.5985 195.814 66.7259 195.884C66.8533 195.954 66.9934 195.997 67.1379 196.011H71.2669C71.5661 195.978 71.8421 195.835 72.0409 195.609C72.2397 195.383 72.3469 195.091 72.3414 194.79L73.6368 167.028C73.6573 166.884 73.6484 166.737 73.6106 166.596C73.5727 166.456 73.5067 166.325 73.4165 166.21C73.3264 166.096 73.2139 166.001 73.0861 165.932C72.9582 165.862 72.8175 165.82 72.6726 165.806Z" fill="#F0F0F0"/>
<path d="M159.58 196.004H175.109V170.509H159.58V196.004Z" fill="#FAFAFA"/>
<path d="M176.721 170.516H173.829C173.337 170.516 172.938 170.915 172.938 171.407V195.121C172.938 195.613 173.337 196.012 173.829 196.012H176.721C177.213 196.012 177.612 195.613 177.612 195.121V171.407C177.612 170.915 177.213 170.516 176.721 170.516Z" fill="#F0F0F0"/>
<path d="M154.347 196.004H169.876V170.509H154.347V196.004Z" fill="#FAFAFA"/>
<path d="M171.495 170.516H168.603C168.111 170.516 167.712 170.915 167.712 171.407V195.121C167.712 195.613 168.111 196.012 168.603 196.012H171.495C171.987 196.012 172.386 195.613 172.386 195.121V171.407C172.386 170.915 171.987 170.516 171.495 170.516Z" fill="#E6E6E6"/>
<path d="M150.372 170.516H163.775L162.708 196.012H150.372V170.516Z" fill="#FAFAFA"/>
<path d="M165.504 170.516H162.376C161.949 170.516 161.589 170.98 161.559 171.547L160.58 194.981C160.58 195.548 160.882 196.012 161.316 196.012H164.452C164.879 196.012 165.239 195.548 165.261 194.981L166.248 171.547C166.262 170.98 165.931 170.516 165.504 170.516Z" fill="#F0F0F0"/>
<path d="M139.553 196.004H155.083V170.509H139.553V196.004Z" fill="#FAFAFA"/>
<path d="M156.694 170.516H153.802C153.31 170.516 152.911 170.915 152.911 171.407V195.121C152.911 195.613 153.31 196.012 153.802 196.012H156.694C157.186 196.012 157.585 195.613 157.585 195.121V171.407C157.585 170.915 157.186 170.516 156.694 170.516Z" fill="#F0F0F0"/>
<path d="M134.327 196.004H149.857V170.509H134.327V196.004Z" fill="#FAFAFA"/>
<path d="M151.469 170.516H148.576C148.085 170.516 147.686 170.915 147.686 171.407V195.121C147.686 195.613 148.085 196.012 148.576 196.012H151.469C151.961 196.012 152.359 195.613 152.359 195.121V171.407C152.359 170.915 151.961 170.516 151.469 170.516Z" fill="#E6E6E6"/>
<path d="M130.353 170.516H143.748L142.688 196.012H130.353V170.516Z" fill="#FAFAFA"/>
<path d="M145.485 170.516H142.35C141.923 170.516 141.562 170.98 141.54 171.547L140.576 194.981C140.576 195.548 140.885 196.012 141.312 196.012H144.44C144.867 196.012 145.228 195.548 145.257 194.981L146.236 171.547C146.236 170.98 145.912 170.516 145.485 170.516Z" fill="#F0F0F0"/>
<path d="M110.297 196.012H121.124V168.61H110.297V196.012Z" fill="#FAFAFA"/>
<path d="M122.102 168.603H120.388C119.961 168.603 119.615 168.949 119.615 169.376V195.231C119.615 195.658 119.961 196.004 120.388 196.004H122.102C122.529 196.004 122.875 195.658 122.875 195.231V169.376C122.875 168.949 122.529 168.603 122.102 168.603Z" fill="#F0F0F0"/>
<path d="M101.281 196.012H113.212V165.813H101.281V196.012Z" fill="#FAFAFA"/>
<path d="M114.286 165.806H112.402C111.93 165.806 111.548 166.188 111.548 166.66V195.15C111.548 195.622 111.93 196.004 112.402 196.004H114.286C114.758 196.004 115.14 195.622 115.14 195.15V166.66C115.14 166.188 114.758 165.806 114.286 165.806Z" fill="#F5F5F5"/>
<path d="M98.2266 165.806H108.523L107.706 196.011H98.2266V165.806Z" fill="#FAFAFA"/>
<path d="M109.855 165.806H107.456C107.132 165.806 106.845 166.351 106.83 167.028L106.094 194.79C106.094 195.459 106.323 196.011 106.654 196.011H109.06C109.384 196.011 109.664 195.459 109.686 194.79L110.422 167.028C110.4 166.336 110.179 165.806 109.855 165.806Z" fill="#F0F0F0"/>
<path d="M60.4844 281.446H73.6073V251.248H60.4844V281.446Z" fill="#FAFAFA"/>
<path d="M74.8364 251.241H72.6652C72.1734 251.241 71.7747 251.64 71.7747 252.132V280.548C71.7747 281.04 72.1734 281.439 72.6652 281.439H74.8364C75.3283 281.439 75.727 281.04 75.727 280.548V252.132C75.727 251.64 75.3283 251.241 74.8364 251.241Z" fill="#F0F0F0"/>
<path d="M56.0758 281.446H69.1987V251.248H56.0758V281.446Z" fill="#FAFAFA"/>
<path d="M70.4205 251.241H68.2493C67.7575 251.241 67.3588 251.64 67.3588 252.132V280.548C67.3588 281.04 67.7575 281.439 68.2493 281.439H70.4205C70.9124 281.439 71.3111 281.04 71.3111 280.548V252.132C71.3111 251.64 70.9124 251.241 70.4205 251.241Z" fill="#E6E6E6"/>
<path d="M52.7123 251.248H64.032L63.134 281.446H52.7123V251.248Z" fill="#FAFAFA"/>
<path d="M65.504 251.241H62.8544C62.4938 251.241 62.1847 251.793 62.1626 252.463L61.3383 280.225C61.3383 280.902 61.5959 281.446 61.9565 281.446H64.5987C64.9594 281.446 65.2685 280.902 65.2906 280.225L66.1149 252.448C66.137 251.793 65.8573 251.241 65.504 251.241Z" fill="#F0F0F0"/>
<path d="M170.281 281.446H183.963V255.951H170.281V281.446Z" fill="#FAFAFA"/>
<path d="M185.332 255.951H182.889C182.425 255.951 182.05 256.327 182.05 256.79V280.607C182.05 281.071 182.425 281.446 182.889 281.446H185.332C185.796 281.446 186.171 281.071 186.171 280.607V256.79C186.171 256.327 185.796 255.951 185.332 255.951Z" fill="#F0F0F0"/>
<path d="M165.674 281.446H179.356V255.951H165.674V281.446Z" fill="#FAFAFA"/>
<path d="M180.725 255.951H178.281C177.818 255.951 177.442 256.327 177.442 256.79V280.607C177.442 281.071 177.818 281.446 178.281 281.446H180.725C181.188 281.446 181.564 281.071 181.564 280.607V256.79C181.564 256.327 181.188 255.951 180.725 255.951Z" fill="#E6E6E6"/>
<path d="M162.17 255.951H173.976L173.034 281.446H162.17V255.951Z" fill="#FAFAFA"/>
<path d="M175.507 255.951H172.747C172.371 255.951 172.011 256.415 172.011 256.982L171.164 280.416C171.164 280.983 171.429 281.446 171.805 281.446H174.565C174.94 281.446 175.264 280.983 175.301 280.416L176.162 256.982C176.169 256.415 175.904 255.951 175.507 255.951Z" fill="#F0F0F0"/>
<path d="M152.632 281.446H166.314V255.951H152.632V281.446Z" fill="#FAFAFA"/>
<path d="M167.683 255.951H165.239C164.776 255.951 164.4 256.327 164.4 256.79V280.607C164.4 281.071 164.776 281.446 165.239 281.446H167.683C168.146 281.446 168.522 281.071 168.522 280.607V256.79C168.522 256.327 168.146 255.951 167.683 255.951Z" fill="#F0F0F0"/>
<path d="M148.024 281.446H161.707V255.951H148.024V281.446Z" fill="#FAFAFA"/>
<path d="M163.076 255.951H160.632C160.169 255.951 159.793 256.327 159.793 256.79V280.607C159.793 281.071 160.169 281.446 160.632 281.446H163.076C163.539 281.446 163.915 281.071 163.915 280.607V256.79C163.915 256.327 163.539 255.951 163.076 255.951Z" fill="#E6E6E6"/>
<path d="M144.521 255.951H156.326L155.392 281.446H144.521V255.951Z" fill="#FAFAFA"/>
<path d="M157.857 255.951H155.097C154.722 255.951 154.398 256.415 154.361 256.982L153.515 280.416C153.515 280.983 153.78 281.446 154.155 281.446H156.915C157.291 281.446 157.651 280.983 157.651 280.416L158.512 256.982C158.52 256.415 158.24 255.951 157.857 255.951Z" fill="#F0F0F0"/>
<path d="M138.581 281.446H148.12V254.045H138.581V281.446Z" fill="#FAFAFA"/>
<path d="M147.517 254.045H148.937C149.132 254.045 149.319 254.123 149.457 254.261C149.595 254.399 149.673 254.586 149.673 254.781V280.732C149.673 280.928 149.595 281.115 149.457 281.253C149.319 281.391 149.132 281.468 148.937 281.468H147.517C147.321 281.468 147.134 281.391 146.996 281.253C146.858 281.115 146.781 280.928 146.781 280.732V254.766C146.784 254.574 146.864 254.39 147.001 254.255C147.139 254.121 147.324 254.045 147.517 254.045Z" fill="#F0F0F0"/>
<path d="M130.64 281.446H141.15V251.248H130.64V281.446Z" fill="#FAFAFA"/>
<path d="M142.041 251.241H140.48C140.037 251.241 139.678 251.6 139.678 252.043V280.637C139.678 281.08 140.037 281.439 140.48 281.439H142.041C142.484 281.439 142.843 281.08 142.843 280.637V252.043C142.843 251.6 142.484 251.241 142.041 251.241Z" fill="#F5F5F5"/>
<path d="M127.946 251.248H137.021L136.3 281.446H127.946V251.248Z" fill="#FAFAFA"/>
<path d="M138.191 251.241H136.072C135.785 251.241 135.534 251.793 135.52 252.463L134.857 280.225C134.857 280.902 135.063 281.446 135.35 281.446H137.47C137.757 281.446 138.007 280.902 138.022 280.225L138.684 252.463C138.699 251.793 138.478 251.241 138.191 251.241Z" fill="#F0F0F0"/>
<path d="M119.387 240.466H139.869V210.268H119.387V240.466Z" fill="#FAFAFA"/>
<path d="M142.055 210.26H138.125C137.507 210.26 137.006 210.761 137.006 211.379V239.34C137.006 239.958 137.507 240.459 138.125 240.459H142.055C142.673 240.459 143.174 239.958 143.174 239.34V211.379C143.174 210.761 142.673 210.26 142.055 210.26Z" fill="#F0F0F0"/>
<path d="M112.498 240.466H132.98V210.268H112.498V240.466Z" fill="#FAFAFA"/>
<path d="M135.159 210.26H131.229C130.611 210.26 130.11 210.761 130.11 211.379V239.34C130.11 239.958 130.611 240.459 131.229 240.459H135.159C135.777 240.459 136.278 239.958 136.278 239.34V211.379C136.278 210.761 135.777 210.26 135.159 210.26Z" fill="#E6E6E6"/>
<path d="M107.25 210.26H124.921L123.515 240.466H107.25V210.26Z" fill="#FAFAFA"/>
<path d="M127.21 210.26H123.081C122.781 210.292 122.504 210.435 122.305 210.661C122.106 210.888 122 211.181 122.007 211.482L120.704 239.244C120.683 239.388 120.692 239.535 120.73 239.676C120.768 239.816 120.834 239.947 120.924 240.062C121.014 240.176 121.127 240.271 121.255 240.34C121.383 240.41 121.523 240.452 121.668 240.466H125.797C126.096 240.433 126.372 240.289 126.571 240.063C126.77 239.837 126.877 239.545 126.872 239.244L128.16 211.482C128.18 211.339 128.172 211.194 128.135 211.054C128.098 210.914 128.033 210.784 127.945 210.67C127.856 210.556 127.745 210.461 127.619 210.39C127.493 210.32 127.354 210.276 127.21 210.26Z" fill="#F0F0F0"/>
<path d="M150.784 240.459H163.333V214.964H150.784V240.459Z" fill="#FAFAFA"/>
<path d="M164.555 214.971H162.384C161.941 214.971 161.581 215.33 161.581 215.773V239.664C161.581 240.107 161.941 240.466 162.384 240.466H164.555C164.998 240.466 165.357 240.107 165.357 239.664V215.773C165.357 215.33 164.998 214.971 164.555 214.971Z" fill="#F0F0F0"/>
<path d="M146.56 240.459H159.109V214.964H146.56V240.459Z" fill="#FAFAFA"/>
<path d="M160.33 214.971H158.159C157.716 214.971 157.357 215.33 157.357 215.773V239.664C157.357 240.107 157.716 240.466 158.159 240.466H160.33C160.773 240.466 161.132 240.107 161.132 239.664V215.773C161.132 215.33 160.773 214.971 160.33 214.971Z" fill="#E6E6E6"/>
<path d="M143.343 214.971H154.177L153.316 240.466H143.343V214.971Z" fill="#FAFAFA"/>
<path d="M155.576 214.971H153.044C152.698 214.971 152.403 215.435 152.389 216.001L151.616 239.436C151.616 240.002 151.859 240.466 152.205 240.466H154.737C155.083 240.466 155.377 240.002 155.392 239.436L156.187 216.001C156.187 215.435 155.922 214.971 155.576 214.971Z" fill="#F0F0F0"/>
<path d="M171.724 240.466H182.116V219.35H171.724V240.466Z" fill="#FAFAFA"/>
<path d="M183.124 219.343H181.321C180.955 219.343 180.659 219.639 180.659 220.005V239.796C180.659 240.162 180.955 240.459 181.321 240.459H183.124C183.49 240.459 183.787 240.162 183.787 239.796V220.005C183.787 219.639 183.49 219.343 183.124 219.343Z" fill="#F0F0F0"/>
<path d="M168.22 240.466H178.613V219.35H168.22V240.466Z" fill="#FAFAFA"/>
<path d="M179.628 219.343H177.825C177.459 219.343 177.163 219.639 177.163 220.005V239.796C177.163 240.162 177.459 240.459 177.825 240.459H179.628C179.994 240.459 180.291 240.162 180.291 239.796V220.005C180.291 219.639 179.994 219.343 179.628 219.343Z" fill="#E6E6E6"/>
<path d="M165.556 219.343H174.528L173.814 240.466H165.556V219.343Z" fill="#FAFAFA"/>
<path d="M175.691 219.328H173.593C173.306 219.328 173.063 219.711 173.048 220.182L172.393 239.597C172.393 240.068 172.592 240.451 172.879 240.451H174.977C175.256 240.451 175.507 240.068 175.521 239.597L176.176 220.182C176.191 219.725 175.97 219.328 175.691 219.328Z" fill="#F0F0F0"/>
<path d="M86.5536 240.459H102.083V214.964H86.5536V240.459Z" fill="#FAFAFA"/>
<path d="M103.702 214.971H100.81C100.318 214.971 99.9193 215.37 99.9193 215.861V239.575C99.9193 240.067 100.318 240.466 100.81 240.466H103.702C104.194 240.466 104.593 240.067 104.593 239.575V215.861C104.593 215.37 104.194 214.971 103.702 214.971Z" fill="#F0F0F0"/>
<path d="M81.3354 240.459H96.865V214.964H81.3354V240.459Z" fill="#FAFAFA"/>
<path d="M98.4694 214.971H95.577C95.0851 214.971 94.6864 215.37 94.6864 215.861V239.575C94.6864 240.067 95.0851 240.466 95.577 240.466H98.4694C98.9613 240.466 99.36 240.067 99.36 239.575V215.861C99.36 215.37 98.9613 214.971 98.4694 214.971Z" fill="#E6E6E6"/>
<path d="M77.3536 214.971H90.7562L89.689 240.466H77.3536V214.971Z" fill="#FAFAFA"/>
<path d="M92.4857 214.971H89.3577C89.118 215.011 88.9015 215.138 88.7505 215.328C88.5995 215.519 88.5247 215.759 88.5408 216.001L87.584 239.436C87.584 240.002 87.8857 240.466 88.32 240.466H91.448C91.6878 240.426 91.9042 240.299 92.0552 240.108C92.2062 239.918 92.281 239.678 92.2649 239.436L93.2438 216.001C93.2438 215.435 92.9126 214.971 92.4857 214.971Z" fill="#F0F0F0"/>
<path d="M64.7827 240.466H75.6093V213.065H64.7827V240.466Z" fill="#FAFAFA"/>
<path d="M76.5808 213.057H74.8659C74.4391 213.057 74.0931 213.403 74.0931 213.83V239.686C74.0931 240.113 74.4391 240.459 74.8659 240.459H76.5808C77.0076 240.459 77.3536 240.113 77.3536 239.686V213.83C77.3536 213.403 77.0076 213.057 76.5808 213.057Z" fill="#F0F0F0"/>
<path d="M55.7667 240.466H67.6973V210.268H55.7667V240.466Z" fill="#FAFAFA"/>
<path d="M68.7645 210.26H66.8804C66.4089 210.26 66.0266 210.643 66.0266 211.114V239.605C66.0266 240.076 66.4089 240.459 66.8804 240.459H68.7645C69.2361 240.459 69.6183 240.076 69.6183 239.605V211.114C69.6183 210.643 69.2361 210.26 68.7645 210.26Z" fill="#F5F5F5"/>
<path d="M52.7123 210.26H63.0089L62.192 240.466H52.7123V210.26Z" fill="#FAFAFA"/>
<path d="M64.3411 210.26H61.9344C61.6032 210.26 61.3235 210.812 61.3088 211.482L60.5728 239.244C60.5728 239.914 60.8083 240.466 61.1395 240.466H63.5168C63.848 240.466 64.1276 239.914 64.1424 239.244L64.8784 211.482C64.9152 210.812 64.6649 210.26 64.3411 210.26Z" fill="#F0F0F0"/>
<path d="M113.594 281.446H128.778V248.827H113.594V281.446Z" fill="#FAFAFA"/>
<path d="M130.228 248.827H127.659C127.106 248.827 126.658 249.275 126.658 249.828V280.445C126.658 280.998 127.106 281.446 127.659 281.446H130.228C130.781 281.446 131.229 280.998 131.229 280.445V249.828C131.229 249.275 130.781 248.827 130.228 248.827Z" fill="#F0F0F0"/>
<path d="M108.486 281.446H123.67V248.827H108.486V281.446Z" fill="#FAFAFA"/>
<path d="M125.113 248.827H122.544C121.991 248.827 121.543 249.275 121.543 249.828V280.445C121.543 280.998 121.991 281.446 122.544 281.446H125.113C125.666 281.446 126.114 280.998 126.114 280.445V249.828C126.114 249.275 125.666 248.827 125.113 248.827Z" fill="#E6E6E6"/>
<path d="M104.593 248.827H117.694L116.656 281.446H104.593V248.827Z" fill="#FAFAFA"/>
<path d="M119.394 248.827H116.332C115.913 248.827 115.552 249.416 115.53 250.144L114.573 280.129C114.573 280.865 114.868 281.446 115.309 281.446H118.371C118.79 281.446 119.107 280.858 119.166 280.129L120.123 250.144C120.13 249.416 119.806 248.827 119.394 248.827Z" fill="#F0F0F0"/>
<path d="M90.9549 281.446H104.078V253.051H90.9549V281.446Z" fill="#FAFAFA"/>
<path d="M105.329 253.052H103.114C102.634 253.052 102.245 253.44 102.245 253.92V280.578C102.245 281.058 102.634 281.446 103.114 281.446H105.329C105.809 281.446 106.197 281.058 106.197 280.578V253.92C106.197 253.44 105.809 253.052 105.329 253.052Z" fill="#F0F0F0"/>
<path d="M86.5389 281.446H99.6617V253.051H86.5389V281.446Z" fill="#FAFAFA"/>
<path d="M100.913 253.052H98.6976C98.2179 253.052 97.8291 253.44 97.8291 253.92V280.578C97.8291 281.058 98.2179 281.446 98.6976 281.446H100.913C101.393 281.446 101.781 281.058 101.781 280.578V253.92C101.781 253.44 101.393 253.052 100.913 253.052Z" fill="#E6E6E6"/>
<path d="M83.1827 253.052H94.5024L93.6045 281.446H83.1827V253.052Z" fill="#FAFAFA"/>
<path d="M95.967 253.052H93.3248C92.9641 253.052 92.655 253.567 92.6329 254.2L91.8086 280.298C91.8086 280.931 92.0588 281.446 92.4195 281.446H95.0691C95.4297 281.446 95.7388 280.931 95.7536 280.298L96.5852 254.2C96.6073 253.567 96.3276 253.052 95.967 253.052Z" fill="#F0F0F0"/>
<path d="M184 314.684C262.813 314.684 326.703 310.954 326.703 306.353C326.703 301.751 262.813 298.021 184 298.021C105.187 298.021 41.297 301.751 41.297 306.353C41.297 310.954 105.187 314.684 184 314.684Z" fill="#F5F5F5"/>
<path d="M169.376 304.424C169.45 304.651 169.468 304.893 169.428 305.128C169.388 305.364 169.292 305.586 169.147 305.776C169.002 305.965 168.813 306.117 168.596 306.218C168.38 306.318 168.142 306.364 167.904 306.353H65.3789C62.1773 306.353 62.1773 285.502 65.3789 285.502H167.933C168.171 285.49 168.408 285.537 168.623 285.637C168.839 285.737 169.027 285.888 169.172 286.077C169.317 286.266 169.414 286.487 169.454 286.721C169.495 286.955 169.478 287.196 169.405 287.423C168.124 291.397 168.124 300.457 169.376 304.424Z" fill="#6F604E"/>
<path opacity="0.8" d="M169.229 287.938H107.014C104.564 287.938 104.564 303.916 107.014 303.916H169.229C168.176 299.905 168.176 291.942 169.229 287.938Z" fill="white"/>
<path opacity="0.2" d="M103.916 304.424C103.99 304.651 104.008 304.893 103.968 305.128C103.928 305.364 103.832 305.586 103.687 305.776C103.542 305.965 103.353 306.117 103.137 306.218C102.92 306.318 102.682 306.364 102.444 306.353H65.3789C62.1773 306.353 62.1773 285.502 65.3789 285.502H102.473C102.711 285.49 102.948 285.537 103.164 285.637C103.379 285.737 103.568 285.888 103.712 286.077C103.857 286.266 103.954 286.487 103.994 286.721C104.035 286.955 104.018 287.196 103.945 287.423C102.665 291.397 102.665 300.457 103.916 304.424Z" fill="black"/>
<path d="M81.1881 285.502H72.7168C69.5152 285.502 69.5152 306.353 72.7168 306.353H81.1881C78.0159 306.353 78.0159 285.502 81.1881 285.502Z" fill="#6F604E"/>
<path d="M87.8637 285.502H84.5369C81.3353 285.502 81.3353 306.353 84.5369 306.353H87.8637C84.64 306.353 84.64 285.502 87.8637 285.502Z" fill="#6F604E"/>
<path d="M59.4025 283.772C59.0493 284.626 59.9177 285.502 61.0953 285.502H153.301C157.062 285.502 157.062 266.756 153.301 266.756H61.088C59.9104 266.756 59.0419 267.624 59.3952 268.485C60.8672 272.055 60.8672 280.203 59.4025 283.772Z" fill="#25201A"/>
<path opacity="0.2" d="M59.4025 283.772C59.0493 284.626 59.9177 285.502 61.0953 285.502H106.308C110.069 285.502 110.069 266.756 106.308 266.756H61.088C59.9104 266.756 59.0419 267.624 59.3952 268.485C60.8672 272.055 60.8672 280.203 59.4025 283.772Z" fill="black"/>
<path opacity="0.8" d="M59.5645 268.942H104.46C107.338 268.942 107.338 283.308 104.46 283.308H59.5645C60.8009 279.68 60.8009 272.548 59.5645 268.942Z" fill="white"/>
<path opacity="0.2" d="M119.372 270.936C119.092 270.105 119.902 269.295 121.02 269.295H146.832C149.57 269.295 149.57 282.955 146.832 282.955H121.02C119.902 282.955 119.092 282.153 119.372 281.321C120.255 277.916 120.255 274.342 119.372 270.936Z" fill="white"/>
<path d="M305.977 275.404C306.059 275.653 306.082 275.917 306.045 276.176C306.009 276.436 305.913 276.683 305.766 276.9C305.619 277.117 305.424 277.297 305.197 277.427C304.969 277.557 304.715 277.632 304.454 277.649H196.115C192.729 277.649 192.729 253.361 196.115 253.361H304.454C304.711 253.378 304.961 253.454 305.185 253.581C305.409 253.709 305.601 253.885 305.747 254.098C305.894 254.31 305.991 254.552 306.03 254.807C306.07 255.062 306.052 255.322 305.977 255.569C304.66 260.242 304.66 270.789 305.977 275.404Z" fill="#6F604E"/>
<path opacity="0.5" d="M305.977 275.404C306.059 275.653 306.082 275.917 306.045 276.176C306.009 276.436 305.913 276.683 305.766 276.9C305.619 277.117 305.424 277.297 305.197 277.427C304.969 277.557 304.715 277.632 304.454 277.649H196.115C192.729 277.649 192.729 253.361 196.115 253.361H304.454C304.711 253.378 304.961 253.454 305.185 253.581C305.409 253.709 305.601 253.885 305.747 254.098C305.894 254.31 305.991 254.552 306.03 254.807C306.07 255.062 306.052 255.322 305.977 255.569C304.66 260.242 304.66 270.789 305.977 275.404Z" fill="white"/>
<path opacity="0.8" d="M305.83 256.216H240.098C237.507 256.216 237.507 274.808 240.098 274.808H305.83C304.704 270.149 304.704 260.883 305.83 256.216Z" fill="white"/>
<path opacity="0.6" d="M236.823 275.404C236.904 275.653 236.927 275.917 236.891 276.176C236.854 276.436 236.759 276.683 236.612 276.9C236.465 277.117 236.27 277.297 236.042 277.427C235.815 277.557 235.561 277.632 235.299 277.649H196.115C192.729 277.649 192.729 253.361 196.115 253.361H235.299C235.556 253.378 235.806 253.454 236.03 253.581C236.254 253.709 236.447 253.885 236.593 254.098C236.739 254.31 236.836 254.552 236.876 254.807C236.916 255.062 236.897 255.322 236.823 255.569C235.52 260.242 235.52 270.789 236.823 275.404Z" fill="#6F604E"/>
<path opacity="0.5" d="M220.925 255.179C221.002 254.988 221.033 254.783 221.016 254.579C220.999 254.374 220.934 254.177 220.826 254.002C220.719 253.827 220.572 253.68 220.397 253.573C220.223 253.465 220.025 253.4 219.821 253.383H204.88C201.495 253.383 201.495 277.671 204.88 277.671H219.821C220.026 277.652 220.223 277.586 220.398 277.478C220.572 277.369 220.719 277.222 220.826 277.047C220.933 276.871 220.998 276.673 221.015 276.469C221.033 276.264 221.002 276.058 220.925 275.868C219.416 271.356 219.416 259.676 220.925 255.179Z" fill="white"/>
<path d="M298.205 303.681C298.292 304.004 298.301 304.343 298.231 304.67C298.162 304.997 298.015 305.302 297.803 305.561C297.592 305.82 297.322 306.025 297.015 306.159C296.709 306.293 296.375 306.351 296.041 306.331H183.477C178.671 306.331 178.664 277.627 183.477 277.627H296.085C296.419 277.606 296.753 277.665 297.059 277.798C297.366 277.932 297.636 278.137 297.847 278.396C298.059 278.655 298.206 278.961 298.276 279.288C298.345 279.614 298.336 279.953 298.249 280.276C296.328 285.745 296.336 298.22 298.205 303.681Z" fill="#6F604E"/>
<path opacity="0.2" d="M298.205 303.681C298.292 304.004 298.301 304.343 298.231 304.67C298.162 304.997 298.015 305.302 297.803 305.561C297.592 305.82 297.322 306.025 297.015 306.159C296.709 306.293 296.375 306.351 296.041 306.331H183.477C178.671 306.331 178.664 277.627 183.477 277.627H296.085C296.419 277.606 296.753 277.665 297.059 277.798C297.366 277.932 297.636 278.137 297.847 278.396C298.059 278.655 298.206 278.961 298.276 279.288C298.345 279.614 298.336 279.953 298.249 280.276C296.328 285.745 296.336 298.22 298.205 303.681Z" fill="white"/>
<path opacity="0.8" d="M297.984 280.983H229.926C226.246 280.983 226.246 302.974 229.926 302.974H297.992C296.417 297.462 296.417 286.503 297.984 280.983Z" fill="white"/>
<path opacity="0.6" d="M225.275 303.696C225.364 304.018 225.374 304.357 225.305 304.684C225.236 305.011 225.09 305.317 224.879 305.576C224.668 305.835 224.398 306.04 224.092 306.174C223.786 306.308 223.452 306.367 223.118 306.345H183.477C178.671 306.345 178.664 277.641 183.477 277.641H223.118C223.452 277.62 223.786 277.679 224.092 277.813C224.399 277.947 224.669 278.152 224.88 278.411C225.092 278.67 225.239 278.975 225.309 279.302C225.378 279.629 225.369 279.968 225.282 280.291C223.405 285.759 223.405 298.227 225.275 303.696Z" fill="#6F604E"/>
<path opacity="0.5" d="M201.531 278.642C201.593 278.537 201.624 278.417 201.622 278.295C201.619 278.174 201.584 278.055 201.518 277.952C201.453 277.85 201.36 277.767 201.251 277.713C201.142 277.66 201.02 277.637 200.898 277.649H194.164C189.365 277.649 189.365 306.353 194.164 306.353H200.928C201.049 306.364 201.171 306.341 201.28 306.288C201.39 306.234 201.482 306.152 201.548 306.049C201.613 305.946 201.649 305.828 201.651 305.706C201.654 305.584 201.622 305.464 201.561 305.359C198.639 300.921 198.639 283.073 201.531 278.642Z" fill="white"/>
<path opacity="0.5" d="M212.042 278.642C212.102 278.537 212.133 278.416 212.13 278.295C212.128 278.173 212.092 278.054 212.027 277.951C211.962 277.848 211.87 277.765 211.761 277.71C211.652 277.656 211.53 277.632 211.409 277.641H204.674C199.876 277.641 199.876 306.345 204.674 306.345H211.409C211.529 306.355 211.65 306.331 211.758 306.277C211.867 306.223 211.958 306.14 212.022 306.038C212.087 305.936 212.122 305.817 212.124 305.696C212.126 305.576 212.095 305.456 212.034 305.352C209.149 300.921 209.149 283.066 212.042 278.642Z" fill="white"/>
<path d="M297.101 238.111C296.971 236.067 296.49 234.06 295.681 232.179L296.343 231.855C297.184 233.816 297.682 235.907 297.815 238.037L297.101 238.111Z" fill="#6F604E"/>
<path d="M292.486 228.992H274.204V229.728H292.486V228.992Z" fill="#6F604E"/>
<path d="M173.335 251.373C172.96 252.374 173.88 253.383 175.124 253.383H292.486C296.453 253.383 296.453 231.568 292.486 231.568H175.124C173.88 231.568 172.96 232.583 173.335 233.584C174.881 237.728 174.881 247.215 173.335 251.373Z" fill="#6F604E"/>
<path opacity="0.2" d="M173.335 251.373C172.96 252.374 173.88 253.383 175.124 253.383H242.836C246.81 253.383 246.81 231.568 242.836 231.568H175.124C173.88 231.568 172.96 232.583 173.335 233.584C174.881 237.728 174.881 247.215 173.335 251.373Z" fill="black"/>
<path opacity="0.8" d="M173.512 234.122H240.871C243.918 234.122 243.918 250.836 240.871 250.836H173.512C174.815 246.641 174.815 238.317 173.512 234.122Z" fill="white"/>
<path opacity="0.2" d="M256.636 236.433C256.341 235.468 257.195 234.534 258.373 234.534H285.649C288.541 234.534 288.541 250.424 285.649 250.424H258.373C257.195 250.424 256.341 249.489 256.636 248.518C257.6 245.463 257.6 239.494 256.636 236.433Z" fill="white"/>
<path d="M162.362 72.128C159.042 75.6829 150.939 72.128 149.702 81.9168C148.363 92.4711 153.441 97.5421 146.884 100.317C136.58 104.622 129.22 121.83 143.527 128.285C157.835 134.74 188.306 127.976 184.876 114.823C181.446 101.671 182.123 94.6128 186.171 88.4157C191.507 80.224 190.366 69.6992 186.017 65.8867C179.245 59.9251 169.891 64.032 162.362 72.128Z" fill="#25201A"/>
<path d="M180.07 114.47C180.014 114.472 179.959 114.453 179.916 114.416C179.874 114.379 179.847 114.327 179.842 114.271C179.836 114.242 179.837 114.211 179.844 114.182C179.851 114.153 179.864 114.125 179.882 114.101C179.9 114.077 179.922 114.057 179.948 114.042C179.974 114.027 180.003 114.017 180.033 114.014C182.874 113.624 184.567 112.925 185.362 111.806C186.348 110.415 185.921 108.347 185.362 105.726C184.493 101.465 183.293 95.6285 187.121 88.2538C191.765 79.3114 190.065 69.5079 185.715 66.2989C185.666 66.2635 185.634 66.2105 185.624 66.1512C185.615 66.092 185.629 66.0313 185.663 65.9824C185.7 65.9334 185.754 65.9007 185.815 65.891C185.875 65.8814 185.937 65.8957 185.987 65.9309C190.521 69.2503 192.273 79.3187 187.525 88.4672C183.779 95.6947 184.957 101.443 185.811 105.638C186.37 108.361 186.812 110.518 185.708 112.071C184.839 113.3 183.051 114.058 180.077 114.47H180.07Z" fill="#25201A"/>
<path d="M142.961 101.723C142.496 101.721 142.031 101.691 141.57 101.634C141.54 101.631 141.511 101.621 141.484 101.606C141.458 101.591 141.435 101.571 141.416 101.547C141.398 101.523 141.384 101.496 141.376 101.466C141.369 101.437 141.367 101.407 141.371 101.377C141.375 101.347 141.384 101.318 141.399 101.291C141.414 101.265 141.434 101.242 141.458 101.223C141.482 101.205 141.509 101.191 141.539 101.183C141.568 101.176 141.598 101.174 141.628 101.178C143.719 101.436 145.235 101.126 146.258 100.228C148.172 98.543 148.201 95.0176 148.223 90.9328C148.223 86.3107 148.289 81.0777 151.285 77.5081C151.304 77.4849 151.328 77.4658 151.355 77.4518C151.381 77.4377 151.411 77.4291 151.441 77.4264C151.471 77.4236 151.501 77.4268 151.53 77.4358C151.559 77.4448 151.585 77.4594 151.609 77.4787C151.632 77.498 151.651 77.5217 151.665 77.5485C151.679 77.5752 151.688 77.6045 151.69 77.6345C151.693 77.6646 151.69 77.6949 151.681 77.7237C151.672 77.7526 151.657 77.7794 151.638 77.8025C148.746 81.247 148.694 86.3917 148.694 90.9401C148.694 95.128 148.643 98.7491 146.574 100.574C145.555 101.393 144.266 101.803 142.961 101.723Z" fill="#25201A"/>
<path d="M215.199 231.553C210.29 231.494 208.362 231.185 206.102 231.222C203.843 231.259 203.305 231.656 200.95 231.553C199.36 231.487 199.353 229.595 199.964 228.3C200.442 227.284 201.031 226.261 201.576 224.995L207.802 225.451C208.641 227.821 212.807 228.837 216.458 229.676C217.907 230.022 217.164 231.575 215.199 231.553Z" fill="#6F604E"/>
<path d="M182.734 141.135C182.734 141.135 199.206 155.303 215.854 170.332C222.89 176.699 208.133 225.238 208.133 225.238C207.824 226.276 202.334 224.796 201.509 223.98C201.509 223.98 200.67 186.304 204.24 178.716C167.322 169.383 161.552 151.255 161.552 151.255L164.202 140.009L182.734 141.135Z" fill="#25201A"/>
<path opacity="0.2" d="M163.988 155.723C166.055 158.611 168.503 161.206 171.267 163.436C174.947 159.131 173.917 152.175 173.917 152.175L163.988 155.723Z" fill="black"/>
<path d="M209.414 223.141C209.311 223.877 209.134 225.179 209.039 226.143C209.024 226.3 208.95 226.444 208.833 226.548C208.715 226.652 208.563 226.707 208.406 226.703C205.943 226.51 203.503 226.086 201.119 225.437C201.005 225.405 200.903 225.337 200.83 225.243C200.757 225.149 200.717 225.033 200.715 224.914L200.663 222.228C200.663 222.141 200.681 222.054 200.716 221.974C200.751 221.894 200.802 221.822 200.867 221.763C200.931 221.704 201.007 221.66 201.09 221.632C201.173 221.604 201.261 221.594 201.348 221.602L208.943 222.522C209.015 222.53 209.085 222.553 209.148 222.589C209.212 222.625 209.267 222.673 209.311 222.731C209.355 222.788 209.387 222.855 209.404 222.925C209.422 222.995 209.426 223.069 209.414 223.141Z" fill="#25201A"/>
<path opacity="0.3" d="M209.414 223.141C209.311 223.877 209.134 225.179 209.039 226.143C209.024 226.3 208.95 226.444 208.833 226.548C208.715 226.652 208.563 226.707 208.406 226.703C205.943 226.51 203.503 226.086 201.119 225.437C201.005 225.405 200.903 225.337 200.83 225.243C200.757 225.149 200.717 225.033 200.715 224.914L200.663 222.228C200.663 222.141 200.681 222.054 200.716 221.974C200.751 221.894 200.802 221.822 200.867 221.763C200.931 221.704 201.007 221.66 201.09 221.632C201.173 221.604 201.261 221.594 201.348 221.602L208.943 222.522C209.015 222.53 209.085 222.553 209.148 222.589C209.212 222.625 209.267 222.673 209.311 222.731C209.355 222.788 209.387 222.855 209.404 222.925C209.422 222.995 209.426 223.069 209.414 223.141Z" fill="white"/>
<path d="M143.13 266.756C138.14 266.756 136.506 264.879 133.716 264.364C131.361 263.922 130.736 264.128 128.837 263.797C127.247 263.517 127.122 262.428 128.101 260.816C128.739 259.702 129.281 258.535 129.72 257.328L137.286 257.828C138.074 259.852 139.892 263.966 142.666 264.452C145.279 264.96 145.117 266.756 143.13 266.756Z" fill="#6F604E"/>
<path d="M181.593 141.091C181.593 141.091 164.187 172.04 157.18 191.183C149.82 211.291 138.103 244.175 137.257 257.828C136.005 258.424 131.899 258.196 129.691 257.328C129.691 257.328 127.644 210.224 141.812 191.353C145.191 150.939 150.799 144.477 156.761 139.553L181.593 141.091Z" fill="#25201A"/>
<path d="M138.169 255.039C138.079 255.971 138.054 256.908 138.096 257.843C138.106 258.006 138.051 258.166 137.944 258.289C137.836 258.411 137.684 258.487 137.522 258.498C134.703 258.756 130.772 257.85 129.529 257.541C129.413 257.512 129.31 257.446 129.236 257.353C129.161 257.26 129.119 257.145 129.116 257.026L129.021 254.391C129.02 254.304 129.036 254.219 129.07 254.139C129.104 254.059 129.154 253.987 129.217 253.927C129.28 253.868 129.354 253.822 129.436 253.793C129.517 253.764 129.604 253.752 129.691 253.758L137.669 254.443C137.741 254.448 137.812 254.468 137.876 254.501C137.941 254.534 137.998 254.58 138.044 254.635C138.091 254.691 138.126 254.755 138.148 254.824C138.169 254.894 138.176 254.967 138.169 255.039Z" fill="#25201A"/>
<path opacity="0.3" d="M138.169 255.039C138.079 255.971 138.054 256.908 138.096 257.843C138.106 258.006 138.051 258.166 137.944 258.289C137.836 258.411 137.684 258.487 137.522 258.498C134.703 258.756 130.772 257.85 129.529 257.541C129.413 257.512 129.31 257.446 129.236 257.353C129.161 257.26 129.119 257.145 129.116 257.026L129.021 254.391C129.02 254.304 129.036 254.219 129.07 254.139C129.104 254.059 129.154 253.987 129.217 253.927C129.28 253.868 129.354 253.822 129.436 253.793C129.517 253.764 129.604 253.752 129.691 253.758L137.669 254.443C137.741 254.448 137.812 254.468 137.876 254.501C137.941 254.534 137.998 254.58 138.044 254.635C138.091 254.691 138.126 254.755 138.148 254.824C138.169 254.894 138.176 254.967 138.169 255.039Z" fill="white"/>
<path d="M186.208 110.731C186.944 112.122 187.739 113.675 188.548 115.147C189.358 116.619 190.175 118.091 190.999 119.526C192.663 122.419 194.4 125.253 196.262 127.924L195.261 127.034C195.999 127.553 196.814 127.955 197.675 128.226C198.717 128.575 199.785 128.841 200.869 129.021C202.003 129.227 203.18 129.367 204.38 129.477C205.58 129.588 206.838 129.654 207.986 129.727H208.141C208.619 129.755 209.072 129.948 209.424 130.273C209.775 130.599 210.002 131.037 210.065 131.511C210.129 131.986 210.025 132.468 209.772 132.874C209.519 133.281 209.132 133.586 208.678 133.739C207.363 134.176 206.017 134.516 204.652 134.754C203.28 134.998 201.893 135.148 200.501 135.203C199.024 135.26 197.545 135.171 196.085 134.938C194.438 134.69 192.845 134.162 191.375 133.378C191.069 133.211 190.797 132.989 190.572 132.723L190.374 132.487C189.204 131.089 188.063 129.661 187.018 128.196C185.972 126.732 184.949 125.252 184 123.78C183.051 122.308 182.131 120.741 181.262 119.188C180.394 117.635 179.569 116.097 178.782 114.396C178.368 113.43 178.339 112.343 178.701 111.356C179.063 110.37 179.788 109.558 180.728 109.088C181.668 108.618 182.752 108.525 183.758 108.828C184.764 109.13 185.617 109.806 186.142 110.716L186.208 110.731Z" fill="#FFB573"/>
<path d="M182.145 104.792C186.951 106.374 187.732 108.531 190.366 116.494C188.615 121.271 181.534 123.692 181.534 123.692C181.534 123.692 173.173 110.076 182.145 104.792Z" fill="#6F604E"/>
<path d="M188.725 115.155C188.453 117.789 187.776 120.932 186.355 127.107C185.251 132.348 185.236 142.563 183.47 143.1C180.077 144.779 171.584 144.131 156.761 139.553C157.232 131.899 158.122 126.702 155.576 109.141C155.415 108.221 155.462 107.276 155.713 106.376C155.964 105.476 156.413 104.643 157.026 103.938C157.639 103.233 158.402 102.673 159.259 102.3C160.116 101.927 161.045 101.75 161.979 101.781C163.053 101.781 164.187 101.87 165.342 101.973C169.419 102.218 173.473 102.757 177.472 103.585C178.774 103.879 180.121 104.225 181.402 104.578C183.657 105.222 185.62 106.628 186.955 108.557C188.29 110.485 188.916 112.817 188.725 115.155Z" fill="#6F604E"/>
<path d="M136.837 145.596L138.309 144.249C138.583 143.998 138.793 143.686 138.921 143.337C139.049 142.989 139.092 142.615 139.045 142.247L138.64 138.736C138.563 138.046 138.322 137.384 137.938 136.806C137.554 136.227 137.038 135.749 136.432 135.409L135.696 134.99C133.069 137.058 131.751 141.224 131.751 141.224L131.244 142.372C131.132 142.604 131.068 142.856 131.054 143.113C131.041 143.37 131.079 143.628 131.166 143.87C131.253 144.113 131.387 144.335 131.561 144.525C131.735 144.715 131.944 144.869 132.178 144.977L134.438 146.008C134.835 146.177 135.273 146.228 135.698 146.155C136.124 146.082 136.519 145.888 136.837 145.596Z" fill="#FFB573"/>
<path d="M214.095 127.917L212.211 127.181C211.862 127.049 211.487 127.003 211.117 127.047C210.747 127.09 210.392 127.222 210.084 127.431L207.14 129.404C206.562 129.792 206.086 130.314 205.752 130.925C205.417 131.536 205.235 132.218 205.219 132.914V133.79C208.259 135.174 212.579 134.423 212.579 134.423L213.83 134.349C214.088 134.341 214.341 134.282 214.575 134.175C214.809 134.068 215.02 133.915 215.196 133.726C215.371 133.538 215.507 133.316 215.596 133.074C215.685 132.832 215.725 132.575 215.714 132.318L215.596 129.838C215.562 129.406 215.402 128.993 215.135 128.651C214.868 128.31 214.506 128.054 214.095 127.917Z" fill="#FFB573"/>
<path d="M159.962 111.511L159.02 111.946L157.99 112.417C157.305 112.748 156.628 113.094 155.951 113.447C154.589 114.183 153.265 114.919 151.962 115.692C150.659 116.465 149.401 117.326 148.179 118.202C146.957 119.077 145.824 120.034 144.72 121.013L145.205 120.395C144.847 120.923 144.532 121.479 144.263 122.058C143.94 122.728 143.638 123.457 143.343 124.2C142.755 125.672 142.181 127.247 141.651 128.829C141.121 130.412 140.583 132.016 140.061 133.621L138.471 138.456C138.317 138.931 137.996 139.334 137.567 139.59C137.138 139.846 136.631 139.937 136.14 139.847C135.648 139.757 135.207 139.492 134.896 139.101C134.586 138.71 134.428 138.219 134.452 137.72C134.533 135.947 134.695 134.224 134.894 132.487C135.093 130.75 135.343 129.021 135.63 127.284C135.917 125.547 136.293 123.803 136.771 122.036C137.006 121.153 137.264 120.27 137.588 119.342C137.93 118.322 138.369 117.336 138.898 116.398C138.991 116.245 139.097 116.1 139.214 115.964L139.391 115.78C140.603 114.443 141.902 113.187 143.277 112.019C144.633 110.867 146.053 109.793 147.531 108.803C148.99 107.814 150.501 106.905 152.058 106.08C152.838 105.667 153.625 105.277 154.428 104.895C154.832 104.711 155.23 104.519 155.649 104.343C156.069 104.166 156.452 104.011 156.974 103.813C157.976 103.412 159.096 103.421 160.092 103.839C161.087 104.256 161.879 105.048 162.296 106.043C162.713 107.039 162.722 108.158 162.322 109.161C161.921 110.163 161.142 110.967 160.154 111.401L159.962 111.511Z" fill="#FFB573"/>
<path d="M167.072 103.695C163.466 101.112 161.272 100.832 152.543 104.622C151.506 110.113 154.906 118.172 154.906 118.172C154.906 118.172 166.52 112.122 167.072 103.695Z" fill="#6F604E"/>
<path d="M168.014 88.401C168.551 92.4416 168.897 99.7648 166.012 102.032C166.012 102.032 169.78 101.965 176.986 107.861C179.687 104.917 178.141 103.644 178.141 103.644C173.85 102.017 174.152 98.7712 175.087 95.8052L168.014 88.401Z" fill="#FFB573"/>
<path d="M175.462 106.668C172.835 106.668 171.503 110.488 171.503 110.488C171.503 110.488 165.188 105.454 164.327 101.914C165.165 101.576 165.985 101.195 166.785 100.773C166.785 100.773 174.152 104.976 175.462 106.668Z" fill="white"/>
<path d="M177.98 106.573C177.98 106.573 179.967 107.309 180.622 110.253C181.969 104.644 179.341 103.761 179.341 103.761C178.683 103.268 177.864 103.037 177.045 103.114C177.582 103.489 177.97 104.041 178.141 104.673C178.312 105.306 178.255 105.978 177.98 106.573Z" fill="white"/>
<path opacity="0.2" d="M170.899 91.4186L175.08 95.8346C174.852 96.5249 174.687 97.2343 174.587 97.9543C172.938 97.4906 170.759 95.3488 170.686 93.5383C170.626 92.8246 170.698 92.106 170.899 91.4186Z" fill="black"/>
<path d="M163.48 82.5203C164.952 88.8058 165.49 91.4922 169.265 94.3626C174.94 98.6755 182.307 95.8787 182.705 89.3725C183.058 83.4845 180.541 74.2109 173.873 72.4445C172.46 72.0197 170.959 71.9799 169.525 72.3291C168.092 72.6783 166.777 73.404 165.718 74.431C164.659 75.4581 163.893 76.7494 163.499 78.1715C163.106 79.5935 163.099 81.0949 163.48 82.5203Z" fill="#FFB573"/>
<path d="M164.709 87.0393C167.02 85.9059 169.471 80.3344 166.181 77.6995C168.897 78.2073 172.011 77.4787 174.888 75.256C178.642 72.312 184.169 79.6205 182.351 75.3296C179.731 69.1472 171.834 67.6016 164.687 72.7389C157.541 77.8761 158.049 84.1248 164.709 87.0393Z" fill="#25201A"/>
<path d="M162.752 85.7808C162.727 85.7783 162.703 85.7678 162.684 85.7509C162.666 85.7339 162.653 85.7115 162.648 85.6867C162.643 85.662 162.646 85.6364 162.657 85.6136C162.668 85.5908 162.685 85.572 162.707 85.56C164.547 84.7651 172.356 83.1018 172.688 83.0355C172.703 83.0312 172.718 83.03 172.734 83.0322C172.749 83.0344 172.764 83.0398 172.777 83.0482C172.791 83.0565 172.802 83.0676 172.811 83.0806C172.819 83.0937 172.825 83.1084 172.827 83.1239C172.832 83.153 172.825 83.1828 172.809 83.2073C172.793 83.2318 172.768 83.2493 172.739 83.2563C172.658 83.2563 164.643 84.9859 162.796 85.7735L162.752 85.7808Z" fill="white"/>
<path opacity="0.2" d="M172.224 83.168C171.435 82.8211 170.541 82.7999 169.736 83.1091C170.554 83.2901 171.399 83.3101 172.224 83.168Z" fill="black"/>
<path opacity="0.2" d="M172.158 83.7274C171.775 83.6466 171.379 83.6502 170.998 83.7379C170.616 83.8256 170.259 83.9953 169.95 84.2352C170.713 84.223 171.466 84.05 172.158 83.7274Z" fill="black"/>
<path d="M173.593 83.0797C173.696 83.617 174.057 84.0144 174.403 83.9702C174.748 83.9261 174.94 83.4624 174.837 82.9251C174.734 82.3878 174.366 81.9978 174.027 82.0346C173.689 82.0714 173.49 82.5498 173.593 83.0797Z" fill="#25201A"/>
<path d="M180.055 82.3805C180.158 82.9104 180.526 83.3079 180.865 83.2711C181.203 83.2343 181.402 82.7559 181.299 82.2259C181.196 81.696 180.835 81.2912 180.489 81.3354C180.143 81.3795 179.952 81.8432 180.055 82.3805Z" fill="#25201A"/>
<path d="M180.32 81.3869L181.512 80.857C181.512 80.857 181.056 81.9389 180.32 81.3869Z" fill="#25201A"/>
<path d="M178.848 83.4036C179.485 84.6043 180.271 85.7196 181.188 86.7229C180.938 86.9336 180.643 87.0859 180.326 87.1686C180.009 87.2514 179.678 87.2625 179.356 87.2013L178.848 83.4036Z" fill="#ED893E"/>
<path d="M176.53 89.5786C176.826 89.6038 177.124 89.6038 177.42 89.5786C177.44 89.576 177.46 89.5692 177.477 89.5587C177.495 89.5482 177.51 89.5343 177.521 89.5177C177.533 89.5011 177.541 89.4822 177.545 89.4623C177.55 89.4424 177.549 89.4218 177.545 89.4019C177.538 89.3596 177.515 89.3217 177.481 89.2957C177.447 89.2698 177.404 89.2577 177.361 89.2621C176.695 89.3428 176.019 89.2744 175.383 89.0618C174.746 88.8492 174.165 88.4978 173.681 88.033C173.667 88.0183 173.65 88.0066 173.631 87.9986C173.612 87.9907 173.591 87.9866 173.571 87.9866C173.55 87.9866 173.53 87.9907 173.511 87.9986C173.492 88.0066 173.475 88.0183 173.46 88.033C173.433 88.0629 173.417 88.1024 173.417 88.1434C173.417 88.1843 173.433 88.2238 173.46 88.2538C174.288 89.054 175.379 89.525 176.53 89.5786Z" fill="#25201A"/>
<path d="M161.986 88.1507C162.341 88.6568 162.797 89.0836 163.325 89.4042C163.854 89.7247 164.443 89.932 165.055 90.0128C166.586 90.1379 166.917 88.3568 166.137 86.7744C165.438 85.3539 163.797 83.5654 162.457 84.1837C161.118 84.8019 160.993 86.848 161.986 88.1507Z" fill="#FFB573"/>
<path d="M171.525 79.0244C171.566 79.0244 171.606 79.0151 171.643 78.9973C171.68 78.9794 171.713 78.9535 171.738 78.9213C171.975 78.6182 172.283 78.3782 172.635 78.2228C172.987 78.0675 173.371 78.0015 173.755 78.0308C173.795 78.037 173.835 78.0349 173.874 78.0248C173.913 78.0146 173.95 77.9966 173.982 77.9717C174.013 77.9469 174.04 77.9158 174.059 77.8804C174.078 77.8449 174.09 77.806 174.093 77.7658C174.097 77.6813 174.069 77.5984 174.017 77.5322C173.964 77.466 173.889 77.421 173.806 77.4052C173.322 77.3623 172.835 77.44 172.388 77.6313C171.941 77.8227 171.548 78.1217 171.245 78.5018C171.209 78.552 171.189 78.6112 171.185 78.6726C171.181 78.734 171.194 78.7953 171.223 78.8496C171.252 78.9039 171.296 78.949 171.349 78.9798C171.402 79.0107 171.463 79.0261 171.525 79.0244Z" fill="#25201A"/>
<path d="M181.247 78.752C181.287 78.7564 181.327 78.7528 181.364 78.7414C181.402 78.73 181.438 78.7111 181.468 78.6858C181.498 78.657 181.521 78.6227 181.537 78.5847C181.553 78.5468 181.561 78.5061 181.561 78.465C181.561 78.4239 181.553 78.3832 181.537 78.3452C181.521 78.3073 181.498 78.273 181.468 78.2442C181.15 77.8448 180.744 77.5241 180.282 77.3071C179.82 77.0901 179.314 76.9826 178.804 76.993C178.763 76.9963 178.724 77.0082 178.688 77.028C178.652 77.0478 178.621 77.0749 178.597 77.1077C178.572 77.1404 178.555 77.178 178.547 77.2178C178.538 77.2577 178.538 77.299 178.546 77.3389C178.559 77.4221 178.602 77.4976 178.667 77.5507C178.733 77.6037 178.815 77.6306 178.9 77.626C179.304 77.6216 179.704 77.7103 180.069 77.8851C180.434 78.0599 180.754 78.3162 181.004 78.6343C181.034 78.6706 181.071 78.7 181.113 78.7203C181.155 78.7407 181.201 78.7515 181.247 78.752Z" fill="#25201A"/>
<path d="M175.587 86.4138C174.035 86.4138 172.688 84.7651 172.54 82.6528C172.451 81.6579 172.681 80.6605 173.195 79.8045C173.399 79.4417 173.686 79.1327 174.033 78.9035C174.38 78.6743 174.777 78.5315 175.19 78.4871C176.817 78.3767 178.244 80.0621 178.399 82.248C178.554 84.4339 177.354 86.296 175.742 86.4064L175.587 86.4138ZM175.345 78.752H175.212C174.833 78.7954 174.47 78.9282 174.153 79.1393C173.836 79.3504 173.573 79.6339 173.387 79.9664C172.898 80.7806 172.682 81.7293 172.769 82.6749C172.908 84.7283 174.241 86.3107 175.713 86.2151C177.185 86.1194 178.296 84.353 178.156 82.2995C178.016 80.2461 176.78 78.752 175.345 78.752Z" fill="white"/>
<path d="M182.469 86.0163C180.916 86.0163 179.562 84.3751 179.415 82.2627C179.329 81.2681 179.558 80.2717 180.07 79.4144C180.275 79.0514 180.563 78.7425 180.911 78.5134C181.259 78.2843 181.657 78.1415 182.072 78.097C183.684 77.9866 185.126 79.672 185.273 81.8506C185.359 82.8452 185.13 83.8416 184.618 84.6989C184.414 85.0627 184.126 85.3722 183.778 85.6015C183.429 85.8307 183.031 85.973 182.616 86.0163H182.469ZM182.226 78.3251H182.086C181.708 78.3686 181.345 78.5013 181.027 78.7124C180.71 78.9236 180.448 79.2071 180.261 79.5395C179.779 80.3564 179.563 81.3029 179.643 82.248C179.783 84.2352 181.034 85.7882 182.469 85.7882H182.602C182.981 85.7465 183.345 85.6145 183.662 85.4032C183.98 85.1919 184.242 84.9074 184.427 84.5738C184.912 83.7607 185.128 82.8156 185.045 81.8727C184.905 79.8781 183.654 78.3251 182.226 78.3251Z" fill="white"/>
<path d="M179.584 82.5645C179.564 82.5634 179.545 82.5575 179.529 82.5472C179.512 82.5369 179.498 82.5226 179.488 82.5056C179.209 82.064 178.392 82.5424 178.384 82.5424C178.372 82.5504 178.358 82.5558 178.343 82.5583C178.329 82.5608 178.314 82.5603 178.299 82.5568C178.285 82.5534 178.271 82.5471 178.259 82.5383C178.247 82.5295 178.237 82.5184 178.23 82.5056C178.211 82.4842 178.201 82.4567 178.201 82.4283C178.201 82.3999 178.211 82.3725 178.23 82.3511C178.274 82.3511 179.245 81.7475 179.643 82.3511C179.652 82.3632 179.658 82.3772 179.661 82.392C179.665 82.4069 179.664 82.4222 179.661 82.437C179.657 82.4518 179.651 82.4656 179.641 82.4774C179.632 82.4893 179.62 82.4989 179.606 82.5056C179.606 82.5164 179.605 82.5272 179.601 82.5373C179.597 82.5474 179.591 82.5567 179.584 82.5645Z" fill="white"/>
<path d="M173.88 82.0861L175.065 81.5635C175.065 81.5635 174.616 82.6455 173.88 82.0861Z" fill="#25201A"/>
</svg>
